<svg xmlns="http://www.w3.org/2000/svg" xmlns:xlink="http://www.w3.org/1999/xlink" width="194.018" height="145.162" viewBox="0 0 194.018 145.162">
  <defs>
    <linearGradient id="linear-gradient" x1="0.5" y1="1" x2="0.5" gradientUnits="objectBoundingBox">
      <stop offset="0" stop-color="gray" stop-opacity="0.251"/>
      <stop offset="0.54" stop-color="gray" stop-opacity="0.122"/>
      <stop offset="1" stop-color="gray" stop-opacity="0.102"/>
    </linearGradient>
  </defs>
  <g id="undraw_back_to_school_inwc" transform="translate(0.01 -0.005)">
    <ellipse id="Ellipse_8" data-name="Ellipse 8" cx="61.689" cy="3.339" rx="61.689" ry="3.339" transform="translate(39.23 138.489)" fill="#6c63ff" opacity="0.1"/>
    <path id="Path_1" data-name="Path 1" d="M645.284,625.715l-.531.778-3.281,4.881-2.785.84-2.078-2.034.1-1.342.518-6.969s-12.857-7.564-14.006-8.978-5.571-2.7-5.571-2.7-6.764-3.139-9.284-8.621,4.2-6.322,4.2-6.322l25.245,24.143Z" transform="translate(-509.422 -496.977)" fill="#ffc1c7"/>
    <path id="Path_2" data-name="Path 2" d="M750.221,772.391l-8,7.472a29.987,29.987,0,0,1-8.71.265c-2.628-.4-2.122-1.837-1.431-2.83l.012-.018a2.907,2.907,0,0,1,1.7-1.121,6.889,6.889,0,0,0,4.577-3.284L740.848,775l4.289-5,3.171,1.489Z" transform="translate(-611.264 -640.823)" fill="#575988"/>
    <line id="Line_2" data-name="Line 2" y1="6.955" x2="7.99" transform="translate(129.053 130.756)" fill="#fff"/>
    <path id="Path_3" data-name="Path 3" d="M646.466,627.663l-1.883-.884.177-.269.531-.778-7.477-6.322L612.568,595.27s-6.72.836-4.2,6.319,9.284,8.621,9.284,8.621,4.421,1.282,5.571,2.7,14.015,8.975,14.015,8.975l-.518,6.969-.025.332-.164-.14a6.89,6.89,0,0,1-4.577,3.284,2.907,2.907,0,0,0-1.7,1.121l-.012.018c-.707.99-1.2,2.432,1.431,2.83a29.988,29.988,0,0,0,8.71-.265l8-7.472Z" transform="translate(-509.422 -496.993)" opacity="0.1"/>
    <path id="Path_4" data-name="Path 4" d="M63.3,469.55c3.07,13.122,9.569,24.465,19.838,29.966,21.347,11.428,69.486,5.533,105.412-1.238a82.261,82.261,0,0,0,46.783-26.744Z" transform="translate(-61.212 -393.506)" fill="#6c63ff" opacity="0.1"/>
    <path id="Path_5" data-name="Path 5" d="M274.8,53.849H255.086a1.7,1.7,0,0,1,0-3.408h3.408a1.7,1.7,0,1,1,0-3.406h-2.433a1.7,1.7,0,0,1,0-3.408H266.35a27.222,27.222,0,0,0-8.027-2.212c-28.055-3.6-38.071-1.22-41.6,1.238a39.288,39.288,0,0,1-14.42,6.32c-17.31,3.57-49.681,7.866-79.021-1.376C108.694,43,97.857,50.766,91.36,63.74H278.221a30.448,30.448,0,0,0-2.315-10.3A1.7,1.7,0,0,1,274.8,53.849Z" transform="translate(-84.31 -39.57)" fill="#6c63ff" opacity="0.1"/>
    <path id="Path_6" data-name="Path 6" d="M51.865,314.67a86.861,86.861,0,0,0,.764,22.894L225.7,343.894a81.27,81.27,0,0,0,12.025-18.339ZM120.318,331H116.91a1.7,1.7,0,1,1,0,3.408H97.2a1.7,1.7,0,0,1,0-3.408H100.6a1.7,1.7,0,0,1,0-3.406H98.172a1.7,1.7,0,0,1,0-3.408h19.713a1.7,1.7,0,0,1,0,3.408h2.433a1.7,1.7,0,0,1,0,3.406Z" transform="translate(-51.45 -266.016)" fill="#6c63ff" opacity="0.1"/>
    <path id="Path_7" data-name="Path 7" d="M247.477,176.86l-188.955,4.6A75.356,75.356,0,0,0,54,200.969H244.167a80.829,80.829,0,0,0,2.746-12.437A58.932,58.932,0,0,0,247.477,176.86ZM92.361,191.917H88.953a1.7,1.7,0,1,1,0,3.408H69.24a1.7,1.7,0,0,1,0-3.408h3.408a1.7,1.7,0,1,1,0-3.406H70.215a1.7,1.7,0,0,1,0-3.408H89.928a1.7,1.7,0,0,1,0,3.408h2.433a1.7,1.7,0,1,1,0,3.406Z" transform="translate(-53.557 -152.577)" fill="#6c63ff" opacity="0.1"/>
    <g id="Group_2" data-name="Group 2" transform="translate(139.8 48.226)" opacity="0.1">
      <path id="Path_8" data-name="Path 8" d="M848.76,386.808s4.987-12.291,14.3-16.85a20.087,20.087,0,0,0,9.12-8.856,33.8,33.8,0,0,0,2.287-5.742" transform="translate(-847.568 -347.736)" fill="none" stroke="#535461" stroke-miterlimit="10" stroke-width="2"/>
      <path id="Path_9" data-name="Path 9" d="M999.3,316.965c-.971,1.22-5.995,3.006-5.995,3.006s.6-5.3,1.576-6.517a2.83,2.83,0,1,1,4.421,3.516Z" transform="translate(-966.555 -312.249)" fill="#6c63ff"/>
      <path id="Path_10" data-name="Path 10" d="M986.444,367.669c-1.478.5-6.664-.739-6.664-.739s3.387-4.117,4.865-4.614a2.83,2.83,0,1,1,1.8,5.353Z" transform="translate(-955.417 -353.288)" fill="#6c63ff"/>
      <path id="Path_11" data-name="Path 11" d="M939.56,432.27c-1.526-.318-5.38-4-5.38-4s5-1.844,6.529-1.528a2.83,2.83,0,0,1-1.15,5.53Z" transform="translate(-917.882 -406.463)" fill="#6c63ff"/>
      <path id="Path_12" data-name="Path 12" d="M885.769,471.777c-1.558-.053-5.979-3.035-5.979-3.035s4.619-2.663,6.177-2.608a2.829,2.829,0,1,1-.2,5.643Z" transform="translate(-873.11 -438.919)" fill="#6c63ff"/>
      <path id="Path_13" data-name="Path 13" d="M952.454,355.874c.2,1.547,3.576,5.671,3.576,5.671s2.225-4.846,2.025-6.391a2.83,2.83,0,0,0-5.6.72Z" transform="translate(-932.92 -345.686)" fill="#6c63ff"/>
      <path id="Path_14" data-name="Path 14" d="M892.548,399.372c.653,1.415,5.111,4.342,5.111,4.342s.67-5.288.018-6.7a2.829,2.829,0,0,0-5.128,2.363Z" transform="translate(-883.458 -380.803)" fill="#6c63ff"/>
      <path id="Path_15" data-name="Path 15" d="M842.075,455.4c.4,1.507,4.3,5.143,4.3,5.143s1.556-5.1,1.153-6.605a2.829,2.829,0,0,0-5.456,1.462Z" transform="translate(-842.018 -427.289)" fill="#6c63ff"/>
      <path id="Path_16" data-name="Path 16" d="M999.3,316.965c-.971,1.22-5.995,3.006-5.995,3.006s.6-5.3,1.576-6.517a2.83,2.83,0,1,1,4.421,3.516Z" transform="translate(-966.555 -312.249)" opacity="0.25"/>
      <path id="Path_17" data-name="Path 17" d="M986.444,367.669c-1.478.5-6.664-.739-6.664-.739s3.387-4.117,4.865-4.614a2.83,2.83,0,1,1,1.8,5.353Z" transform="translate(-955.417 -353.288)" opacity="0.25"/>
      <path id="Path_18" data-name="Path 18" d="M939.56,432.27c-1.526-.318-5.38-4-5.38-4s5-1.844,6.529-1.528a2.83,2.83,0,0,1-1.15,5.53Z" transform="translate(-917.882 -406.463)" opacity="0.25"/>
      <path id="Path_19" data-name="Path 19" d="M885.769,471.777c-1.558-.053-5.979-3.035-5.979-3.035s4.619-2.663,6.177-2.608a2.829,2.829,0,1,1-.2,5.643Z" transform="translate(-873.11 -438.919)" opacity="0.25"/>
      <path id="Path_20" data-name="Path 20" d="M952.454,355.874c.2,1.547,3.576,5.671,3.576,5.671s2.225-4.846,2.025-6.391a2.83,2.83,0,0,0-5.6.72Z" transform="translate(-932.92 -345.686)" opacity="0.25"/>
      <path id="Path_21" data-name="Path 21" d="M892.548,399.372c.653,1.415,5.111,4.342,5.111,4.342s.67-5.288.018-6.7a2.829,2.829,0,0,0-5.128,2.363Z" transform="translate(-883.458 -380.803)" opacity="0.25"/>
      <path id="Path_22" data-name="Path 22" d="M842.075,455.4c.4,1.507,4.3,5.143,4.3,5.143s1.556-5.1,1.153-6.605a2.829,2.829,0,0,0-5.456,1.462Z" transform="translate(-842.018 -427.289)" opacity="0.25"/>
    </g>
    <g id="Group_3" data-name="Group 3" transform="translate(127.96 21.169)" opacity="0.1">
      <path id="Path_23" data-name="Path 23" d="M803.86,244.2s.63-13.249,7.9-20.64a20.1,20.1,0,0,0,5.668-11.378,33.824,33.824,0,0,0,.248-6.181" transform="translate(-798.768 -197.733)" fill="none" stroke="#535461" stroke-miterlimit="10" stroke-width="2"/>
      <path id="Path_24" data-name="Path 24" d="M882.363,162.834c-.511,1.475-4.66,4.821-4.66,4.821s-1.185-5.2-.676-6.671a2.83,2.83,0,0,1,5.335,1.85Z" transform="translate(-858.892 -159.253)" fill="#6c63ff"/>
      <path id="Path_25" data-name="Path 25" d="M886.313,211.286c-1.238.958-6.533,1.514-6.533,1.514s1.83-5.008,3.059-5.967a2.83,2.83,0,0,1,3.473,4.453Z" transform="translate(-861.262 -198.015)" fill="#6c63ff"/>
      <path id="Path_26" data-name="Path 26" d="M858.474,286.7c-1.546.207-6.4-1.991-6.4-1.991s4.108-3.4,5.659-3.606a2.83,2.83,0,0,1,.75,5.6Z" transform="translate(-838.453 -259.546)" fill="#6c63ff"/>
      <path id="Path_27" data-name="Path 27" d="M822.446,341.309c-1.487.467-6.646-.884-6.646-.884s3.473-4.043,4.962-4.508a2.83,2.83,0,1,1,1.684,5.388Z" transform="translate(-808.597 -304.515)" fill="#6c63ff"/>
      <path id="Path_28" data-name="Path 28" d="M846.507,215.177c.707,1.394,5.256,4.165,5.256,4.165s.49-5.305-.21-6.7a2.83,2.83,0,0,0-5.045,2.536Z" transform="translate(-833.689 -202.05)" fill="#6c63ff"/>
      <path id="Path_29" data-name="Path 29" d="M804.393,276.054c1.086,1.119,6.26,2.4,6.26,2.4s-1.119-5.213-2.205-6.333a2.83,2.83,0,0,0-4.055,3.931Z" transform="translate(-798.649 -251.556)" fill="#6c63ff"/>
      <path id="Path_30" data-name="Path 30" d="M775.454,345.767c.884,1.287,5.765,3.425,5.765,3.425s-.225-5.327-1.1-6.614a2.83,2.83,0,0,0-4.662,3.183Z" transform="translate(-775.068 -309.276)" fill="#6c63ff"/>
    </g>
    <path id="Path_31" data-name="Path 31" d="M464.982,125.045s-4.214-.253-3.714,2.7a.72.72,0,0,0,.375.759s0-.219.432-.145a1.884,1.884,0,0,0,.458.023.957.957,0,0,0,.561-.232h0a3.343,3.343,0,0,0,1.645-2.426s.341-.423.327-.531l-.707.3a1.277,1.277,0,0,1,.051.939s-.023-.921-.159-.9c-.028,0-.37.177-.37.177a2.1,2.1,0,0,1,.1,1.544s.12-1.1-.233-1.478l-.5.292a2.213,2.213,0,0,1,.157,1.676,3.155,3.155,0,0,0-.262-1.606l-.454.354a2.151,2.151,0,0,1,.177,1.535s-.035-1.346-.278-1.447a2.77,2.77,0,0,0-.456.493s.313.661.118,1.01c0,0-.118-.9-.218-.9a2.971,2.971,0,0,0-.437,1,2.161,2.161,0,0,1,.341-1.061,1.2,1.2,0,0,0-.607.313s.062-.419.707-.456a2.752,2.752,0,0,1,.414-.477,2.561,2.561,0,0,0-1.024.118,1.15,1.15,0,0,1,1.141-.218l.449-.364a3.733,3.733,0,0,0-1.2.011,1.441,1.441,0,0,1,1.318-.094l.488-.292a4.377,4.377,0,0,0-1.144-.1,1.762,1.762,0,0,1,1.287.019l.354-.156s-.531-.1-.679-.12-.161-.058-.161-.058a1.818,1.818,0,0,1,.985.11A4.123,4.123,0,0,0,464.982,125.045Z" transform="translate(-388.768 -109.921)" fill="#6c63ff" opacity="0.1"/>
    <path id="Path_32" data-name="Path 32" d="M418.258,206.184s-1.44,3.97,1.533,4.333a.722.722,0,0,0,.835-.145s-.209-.069-.016-.454a1.892,1.892,0,0,0,.145-.433.957.957,0,0,0-.062-.6h0a3.34,3.34,0,0,0-1.859-2.265s-.309-.447-.417-.465l.09.768a1.28,1.28,0,0,1,.916.217s-.884-.239-.909-.1c0,.028.065.4.065.4a2.109,2.109,0,0,1,1.51.34s-1.022-.426-1.484-.2l.138.564a2.206,2.206,0,0,1,1.652.325,3.149,3.149,0,0,0-1.615-.205l.21.531a2.194,2.194,0,0,1,1.523.264s-1.3-.354-1.466-.143a2.73,2.73,0,0,0,.345.578s.722-.113,1,.177c0,0-.893-.14-.925-.046a3.031,3.031,0,0,0,.835.707,2.152,2.152,0,0,1-.916-.626,1.192,1.192,0,0,0,.129.661s-.384-.177-.237-.8a2.847,2.847,0,0,1-.341-.531,2.607,2.607,0,0,0-.177,1.017,1.152,1.152,0,0,1,.117-1.157l-.223-.531a3.579,3.579,0,0,0-.329,1.149,1.454,1.454,0,0,1,.283-1.289l-.141-.55a4.452,4.452,0,0,0-.419,1.061,1.754,1.754,0,0,1,.386-1.227l-.051-.38s-.248.474-.308.617-.1.138-.1.138a1.831,1.831,0,0,1,.385-.914A4.283,4.283,0,0,0,418.258,206.184Z" transform="translate(-353.111 -176.687)" fill="#6c63ff" opacity="0.1"/>
    <path id="Path_33" data-name="Path 33" d="M576.3,187.265s-1.441,3.968,1.533,4.331a.72.72,0,0,0,.833-.143s-.207-.069-.016-.456a1.9,1.9,0,0,0,.152-.433.939.939,0,0,0-.064-.6h0a3.345,3.345,0,0,0-1.859-2.267s-.308-.447-.416-.465l.089.769a1.273,1.273,0,0,1,.916.216s-.884-.239-.907-.1c0,.027.065.4.065.4a2.094,2.094,0,0,1,1.509.34s-1.02-.428-1.484-.2l.138.562a2.211,2.211,0,0,1,1.654.325,3.134,3.134,0,0,0-1.615-.2l.21.531a2.194,2.194,0,0,1,1.523.263s-1.3-.354-1.466-.145a2.783,2.783,0,0,0,.343.578s.723-.113,1,.177c0,0-.895-.14-.925-.048a3.031,3.031,0,0,0,.835.707,2.165,2.165,0,0,1-.918-.628,1.188,1.188,0,0,0,.129.67s-.385-.177-.239-.8a2.792,2.792,0,0,1-.34-.531,2.564,2.564,0,0,0-.177,1.017,1.151,1.151,0,0,1,.118-1.157l-.225-.531a3.545,3.545,0,0,0-.327,1.151,1.458,1.458,0,0,1,.283-1.291l-.141-.55a4.406,4.406,0,0,0-.419,1.061,1.747,1.747,0,0,1,.384-1.227l-.051-.378s-.248.474-.306.615-.1.14-.1.14a1.811,1.811,0,0,1,.385-.914A4.472,4.472,0,0,0,576.3,187.265Z" transform="translate(-483.199 -161.113)" fill="#6c63ff" opacity="0.1"/>
    <path id="Path_34" data-name="Path 34" d="M318.065,159.154s-1.441,3.97,1.533,4.331a.716.716,0,0,0,.833-.143s-.207-.069-.016-.454a1.992,1.992,0,0,0,.152-.433.957.957,0,0,0-.064-.6h0a3.344,3.344,0,0,0-1.859-2.267s-.308-.446-.416-.463l.088.768a1.28,1.28,0,0,1,.916.217s-.884-.241-.907-.1c0,.028.065.4.065.4a2.1,2.1,0,0,1,1.508.34s-1.022-.428-1.484-.2l.138.564a2.206,2.206,0,0,1,1.652.325,3.141,3.141,0,0,0-1.613-.205l.21.531a2.194,2.194,0,0,1,1.523.263s-1.3-.354-1.466-.145a2.788,2.788,0,0,0,.343.58s.723-.115,1,.177c0,0-.893-.14-.925-.046a3.081,3.081,0,0,0,.836.707,2.147,2.147,0,0,1-.918-.628,1.189,1.189,0,0,0,.129.67s-.386-.177-.239-.8a2.762,2.762,0,0,1-.34-.531,2.573,2.573,0,0,0-.177,1.017,1.152,1.152,0,0,1,.117-1.157l-.223-.531a3.594,3.594,0,0,0-.329,1.151,1.454,1.454,0,0,1,.283-1.289l-.14-.552a4.407,4.407,0,0,0-.419,1.061,1.747,1.747,0,0,1,.384-1.227l-.051-.378s-.248.474-.306.617-.1.138-.1.138a1.818,1.818,0,0,1,.384-.914A3.961,3.961,0,0,0,318.065,159.154Z" transform="translate(-270.636 -137.974)" fill="#6c63ff" opacity="0.1"/>
    <path id="Path_35" data-name="Path 35" d="M570.05,310.969s1.112,4.067,3.751,2.653a.72.72,0,0,0,.6-.6s-.209.062-.276-.364a1.915,1.915,0,0,0-.126-.44.96.96,0,0,0-.4-.456h0a3.353,3.353,0,0,0-2.829-.78s-.509-.187-.608-.14l.516.577a1.285,1.285,0,0,1,.872-.354s-.865.317-.8.439c.012.025.286.294.286.294a2.09,2.09,0,0,1,1.429-.592s-1.081.241-1.326.7l.438.382a2.209,2.209,0,0,1,1.537-.688s-1.121.29-1.436.764l.481.317a2.145,2.145,0,0,1,1.4-.663s-1.261.467-1.28.727a2.791,2.791,0,0,0,.615.276s.531-.509.916-.437c0,0-.81.4-.782.5a3.141,3.141,0,0,0,1.088.092,2.148,2.148,0,0,1-1.111.016,1.192,1.192,0,0,0,.49.474s-.417.076-.658-.52a2.756,2.756,0,0,1-.585-.239,2.58,2.58,0,0,0,.442.932,1.148,1.148,0,0,1-.571-1.012l-.486-.3a3.678,3.678,0,0,0,.394,1.13,1.455,1.455,0,0,1-.513-1.217l-.433-.368a4.465,4.465,0,0,0,.274,1.114,1.765,1.765,0,0,1-.393-1.226l-.262-.279s.071.531.106.681,0,.177,0,.177a1.819,1.819,0,0,1-.214-.969A4.366,4.366,0,0,0,570.05,310.969Z" transform="translate(-478.346 -262.86)" fill="#6c63ff" opacity="0.1"/>
    <path id="Path_36" data-name="Path 36" d="M325.465,223.685a9.68,9.68,0,0,0,1.271,1.224l3.445,2.936a6.054,6.054,0,0,0,2.016,1.307,3.155,3.155,0,0,0,2.752-.423l-.058-.019.058-.039a5.2,5.2,0,0,1-1.657-.759,1.862,1.862,0,0,1-.729-1.238h0V226.6a1.3,1.3,0,0,1,.019-.2,4.384,4.384,0,0,0,2.074-.73l-.06-.021.06-.037a6.133,6.133,0,0,1-3.684-4.135,20.953,20.953,0,0,1-.64-5.673,13.933,13.933,0,0,0-1.027-5.6,9.187,9.187,0,0,1-.858-1.963,3.051,3.051,0,0,1-.058-.631,8.427,8.427,0,0,1,.393-2.03,42.325,42.325,0,0,0,.969-4.511,10.586,10.586,0,0,0,.157-1.636,4.2,4.2,0,0,0-.253-1.572c-.81-2.1-3.625-3.1-4.055-5.305a4.649,4.649,0,0,1-.064-.9v-.5c0-.164,0-.354-.014-.516a8.511,8.511,0,0,0-2.012-4.165,11.458,11.458,0,0,0-4.016-3.9,9.552,9.552,0,0,0-4.706-.7,12.242,12.242,0,0,0-2.331-1.583,10.511,10.511,0,0,0-3.822-1.489c-1.707-.187-3.394.467-5.105.577-2.327.15-4.612-.707-6.939-.884s-5.007.607-6.046,2.95a5.625,5.625,0,0,0-.439,1.791h0c-.011.118-.018.235-.023.354v.012a11.127,11.127,0,0,0,.041,1.434v.055a2.616,2.616,0,0,0,.028.286.266.266,0,0,0,.009.083,2.26,2.26,0,0,0,.03.265l.011.083c.014.111.03.223.044.334a3.556,3.556,0,0,0,.147.676,1.268,1.268,0,0,0,.187.354,1.5,1.5,0,0,0,1.026.477l.309.044c-.032.064-.065.127-.1.193a10.994,10.994,0,0,0-1.061,4.734,11.19,11.19,0,0,0,9.5,11.014l.324.4a54.9,54.9,0,0,1,5.659,8.195c-1.369,1.7-2.971,4.713-3.427,9.767l-.677,1.581a11.275,11.275,0,0,0-1.42,7.73c-.4,1.482-.856,3.344-1.172,4.884-2.354-.522-10.388-1.813-12.287-3.066l-5.571-2.624s-7.251-5.065-11.152-3.374a31.3,31.3,0,0,0-4.709-4.476,65.649,65.649,0,0,1-5.8-6.117l-6.478-8.6a4.558,4.558,0,0,0-.4-2.212c-.764-1.022-4.808-3.291-5.617-2.8s-1.484-1.061-1.484-1.061l-.062-.034c-.152-.088-.584-.332-1.183-.654a15.721,15.721,0,0,1,.053-2.152c.012-.12.028-.24.046-.354a9.859,9.859,0,0,0,9.224-7.523c.028-.111.048-.226.071-.34a1.738,1.738,0,0,0,1.632-.474,2.61,2.61,0,0,0,.41-2.35,21.975,21.975,0,0,1-.619-2.4c-.111-1.123.285-2.3-.08-3.36a3.735,3.735,0,0,0-1.972-1.993c-.859-.43-1.8-.681-2.679-1.072-.838-.371-1.618-.87-2.488-1.164a10.276,10.276,0,0,0-3.537-.366,8.934,8.934,0,0,0-2.317-.681,3.3,3.3,0,0,0-2.531.66c-.531.47-.962,1.226-1.682,1.25a2.172,2.172,0,0,1-.987-.313,2.878,2.878,0,0,0-2.83-.1,2.92,2.92,0,0,0-1,2.062,6.7,6.7,0,0,1-.506,2.287,9.928,9.928,0,0,1-.875,1.165,5.008,5.008,0,0,0-.978,3.441v.035c-.042-.177-.083-.341-.113-.515a2.888,2.888,0,0,0,.018.391,10.061,10.061,0,0,0,.394,1.788l.732,2.564a15.066,15.066,0,0,0,1.459,3.781,6.227,6.227,0,0,0,.992,1.247,4.582,4.582,0,0,0,2.223,1.289,2.849,2.849,0,0,0,.909.055.585.585,0,0,1-.016.11c-.065-.012-.133-.027-.195-.035a1.889,1.889,0,0,0-.868.023,3.4,3.4,0,0,0-1.945,2.6c-.028.152-.037.244-.037.244s.023.088.05.239l-.012.051c-.028.15-.037.244-.037.244s.023.088.05.242l-.364.009-6.092.8a13.942,13.942,0,0,0-3.425.051,1.414,1.414,0,0,0-.177.051c-.884.306-4.936,3.1-8.572,5.675a1.33,1.33,0,0,0-.011-.207l-1.035.736v.214c-.258.177-.515.364-.762.543-1.112.8-2.122,1.514-2.874,2.064-.916.658-1.484,1.073-1.484,1.073a1.073,1.073,0,0,0-.559.628c-.286.663-.386,2,.649,4.621a36.2,36.2,0,0,1,2.246,7.829,5.626,5.626,0,0,0-1.459.354,2.641,2.641,0,0,0-1.583,1.415,2.435,2.435,0,0,0-.012,1.574c.852,3.024,14.963,20.2,14.963,20.2l.177.016a12.4,12.4,0,0,0,2.175,0,2.477,2.477,0,0,0,1.56-.559,5.864,5.864,0,0,0,7.723,1.28c-.032,3.643-.124,6.315.454,7.661.9,2.09.9,6.849.9,6.849l.856.03c-.046.177-.1.354-.152.531-.394,1.3-.976,2.879-1.592,3.256-1.036.637-.545,11.58-.5,12.524h0v.057l-.06,4.421v.354a4.286,4.286,0,0,1-.345-.545,7.115,7.115,0,0,0-1.7,4.952,32.25,32.25,0,0,0,.03,3.473s6.72-.26,7.981.2,11.806-.4,11.806-.4a1.55,1.55,0,0,0-.734-1.795,10.239,10.239,0,0,0,4.9-1.3c2.52-1.82-5.084-3.238-5.615-3.526s-3.158-2.607-4.244-3.475a2.207,2.207,0,0,0-1.121-.417l.136-3.963c1.618-1.823,3.371-11.877,3.371-11.877a4.161,4.161,0,0,0,.925-2.349,1.077,1.077,0,0,0,.737-.989h0c1.852.062,4.181.048,4.628-.4.764-.757.674-3.337.674-3.337l-1.079-27.312-.071-.1a13.618,13.618,0,0,0,.011-3.77c2.423.691,4.308,1.162,4.308,1.162s3.647.672,6.206,1.238a4.182,4.182,0,0,0-.927,1.556c-2.3,6.543,10.74,6.273,10.74,6.273l6.156,2.847,14.491,4.736c-4.656-1.374-9.976-2.99-13.6-4.1a9.507,9.507,0,0,0-1.086-.264,9.233,9.233,0,0,0-8.886,3.277c-.025.034-.048.064-.074.1a3.891,3.891,0,0,0-.092,4.617c.554.783,1.294,1.825,2.163,3.036-1.837.555-4.877,2.1-3.029,6.082,2.561,5.516,9.435,8.665,9.435,8.665s4.494,1.291,5.659,2.715a20.9,20.9,0,0,0,3.245,2.354,8.4,8.4,0,0,0,2.386,2.02c1.97.649,5.806,3.763,8.5,6.1l-.4,5.581-.027.336-.166-.141a7,7,0,0,1-4.653,3.305,2.962,2.962,0,0,0-1.731,1.128l-.012.016-.1.149-.078-.058c-.707,1-1.036,2.446,1.634,2.845a30.705,30.705,0,0,0,8.842-.267l4.166-3.852a4.092,4.092,0,0,0,1.592.826c3.114.707,11.861,4.092,11.861,4.092,0-.95,7.73-13.166,7.73-13.166,10.434-19.75-.913-34.51-2.166-36.046l-.111-.134-.1-1.641-.021-.377s5.631-2.49,3.473-3.675-3.36-6.881-5.392-9.253c-1.592-1.85-1.5-6.144-1.668-9.8a5.891,5.891,0,0,0,1.144,2.476c.012.016.027.028.039.044l-.15-.131A1.816,1.816,0,0,0,325.465,223.685Zm-69.382-1.517a24.912,24.912,0,0,0,2.83,2.41c-1-.49-1.786-.9-2.389-1.238C256.382,222.948,256.234,222.555,256.083,222.168Zm-21.449-18.507a2.923,2.923,0,0,1-.911,1.328l-.354-1.526C233.833,203.537,234.264,203.606,234.634,203.661Zm70.681,41.932c.14-.3.285-.6.431-.884a3.316,3.316,0,0,0,1.572-1.093A22.448,22.448,0,0,1,308,246.88v.08a4.981,4.981,0,0,1-.2,1.314c-.163.516-.46,1-1,1.061a19.73,19.73,0,0,1-2.983-.695c-.479-.131-1.006-.278-1.569-.437C303.133,248.144,304.36,247.647,305.315,245.593Zm13.838-37.314a2.916,2.916,0,0,0-1.864-1.07c-.154-.1-.393-.265-.7-.486-1.485-1.088-4.451-3.537-5.811-6.665a7.487,7.487,0,0,0,1.107-.4,8.006,8.006,0,0,0,1.563-.946c.163-.127.322-.26.474-.4a8.251,8.251,0,0,0,1.061-1.158c.126-.177.248-.345.354-.531a8.15,8.15,0,0,0,.47-.845,10.534,10.534,0,0,0,.741-2.122c.069-.294.129-.592.177-.893s.094-.6.127-.907a25.616,25.616,0,0,0,.126-3.231v-.212h0a15.81,15.81,0,0,0-.354-3.252c.08.03.159.06.235.1a2.374,2.374,0,0,1,.364.221c-.028-.041-.06-.081-.09-.122a4.594,4.594,0,0,1,1.238,1.367,19.518,19.518,0,0,1,2.094,16.692,9.973,9.973,0,0,0-.637,2.311c-.249,2.849,2.476,5.022,3.489,7.7a13.956,13.956,0,0,1,.654,4.3c-.764-3.726-3.556-7.394-4.817-9.436Z" transform="translate(-181.258 -152.632)" fill="url(#linear-gradient)"/>
    <path id="Path_37" data-name="Path 37" d="M396.935,663.51s-.133,2.211-.973,2.918c0,0-1.724,9.992-3.316,11.8l-.265,1.017-6.632-.752,1.326-8.842,1.238-8.135Z" transform="translate(-326.639 -551.527)" fill="#ffc1c8"/>
    <path id="Path_38" data-name="Path 38" d="M396.935,663.51s-.133,2.211-.973,2.918c0,0-1.724,9.992-3.316,11.8l-.265,1.017-6.632-.752,1.326-8.842,1.238-8.135Z" transform="translate(-326.639 -551.527)" opacity="0.03"/>
    <path id="Path_39" data-name="Path 39" d="M341.212,712.326l2.858-.126-.152,4.5-2.188,1.466-3.94-.863,1.438-6.013Z" transform="translate(-278.062 -585.498)" fill="#ff748f"/>
    <path id="Path_40" data-name="Path 40" d="M341.212,712.326l2.858-.126-.152,4.5-2.188,1.466-3.94-.863,1.438-6.013Z" transform="translate(-278.062 -585.498)" opacity="0.03"/>
    <path id="Path_41" data-name="Path 41" d="M398.513,778.372s2.244-.661,3.309.2,3.654,3.164,4.172,3.452,7.99,1.7,5.523,3.509-8.8,1.294-8.8,1.294-4.143-1.21-4.258-1.266-2.653-1.294-2.732-1.381.718-5.836.718-5.836Z" transform="translate(-334.844 -647.516)" fill="#5d618c"/>
    <path id="Path_42" data-name="Path 42" d="M398.513,778.372s2.244-.661,3.309.2,3.654,3.164,4.172,3.452,7.99,1.7,5.523,3.509-8.8,1.294-8.8,1.294-4.143-1.21-4.258-1.266-2.653-1.294-2.732-1.381.718-5.836.718-5.836Z" transform="translate(-334.844 -647.516)" opacity="0.03"/>
    <path id="Path_43" data-name="Path 43" d="M243.1,346.433l-.133,8.22-.3,17.534-.177.154c-5.261,4.554-8.975-.265-8.975-.265a2.413,2.413,0,0,1-1.535.555,12,12,0,0,1-2.14,0l-.177-.016s-13.886-17.078-14.726-20.084a2.451,2.451,0,0,1,.012-1.563,2.618,2.618,0,0,1,1.558-1.4,5.5,5.5,0,0,1,1.436-.354,36.336,36.336,0,0,0-2.211-7.781c-1.019-2.608-.92-3.933-.638-4.6a1.064,1.064,0,0,1,.55-.624s.559-.412,1.459-1.061c.748-.546,1.733-1.261,2.83-2.051l1.017-.729c3.751-2.692,8.271-5.861,9.2-6.19a1.353,1.353,0,0,1,.177-.051c1.9-.458,8.266.493,8.266.493Z" transform="translate(-185.929 -275.347)" fill="#6c63ff"/>
    <path id="Path_44" data-name="Path 44" d="M312.736,346.45l-.133,8.22c-6.29-1.855-12.139-14.148-12.91-15.117-.66-.842.018-10.216.267-13.4,1.9-.458,8.266.493,8.266.493Z" transform="translate(-255.57 -275.363)" fill="none"/>
    <path id="Path_45" data-name="Path 45" d="M312.736,346.45l-.133,8.22c-6.29-1.855-12.139-14.148-12.91-15.117-.66-.842.018-10.216.267-13.4,1.9-.458,8.266.493,8.266.493Z" transform="translate(-255.57 -275.363)" opacity="0.1"/>
    <path id="Path_46" data-name="Path 46" d="M586.057,349.133s-4.907,2.52-5.526,12.423a47.833,47.833,0,0,1-1.238,5.924c-.442.884-2.564,9.24-2.3,10.257,0,0-.442,1.017-2.078.575s-10.478-1.813-12.468-3.139l-5.482-2.608s-10.7-7.56-12.954-1.061,10.566,6.237,10.566,6.237l6.057,2.83,18.348,6.053s2.432,1.105,4.067-2.432a41.5,41.5,0,0,1,3.714-6.366s3.714-10.434,3.669-12.2,3.979-5.969,3.979-5.969.8-11.141-5.747-10.92Z" transform="translate(-456.694 -294.054)" fill="#ffc1c7"/>
    <path id="Path_47" data-name="Path 47" d="M586.057,349.133s-4.907,2.52-5.526,12.423a47.833,47.833,0,0,1-1.238,5.924c-.442.884-2.564,9.24-2.3,10.257,0,0-.442,1.017-2.078.575s-10.478-1.813-12.468-3.139l-5.482-2.608s-10.7-7.56-12.954-1.061,10.566,6.237,10.566,6.237l6.057,2.83,18.348,6.053s2.432,1.105,4.067-2.432a41.5,41.5,0,0,1,3.714-6.366s3.714-10.434,3.669-12.2,3.979-5.969,3.979-5.969.8-11.141-5.747-10.92Z" transform="translate(-456.694 -294.054)" opacity="0.03"/>
    <path id="Path_48" data-name="Path 48" d="M469.333,399.64a8.54,8.54,0,0,0,1.5.948,64.815,64.815,0,0,0,5.7,6.078c1.636,1.238,6.985,5.969,5.9,7.76s-2.3,1.392-2.3,1.392l-9.573-6.632s-3.36-2.409-4.044-3.558A26.59,26.59,0,0,1,465,402.072Z" transform="translate(-391.874 -335.96)" fill="#ffc1c8"/>
    <path id="Path_49" data-name="Path 49" d="M469.333,399.64a8.54,8.54,0,0,0,1.5.948,64.815,64.815,0,0,0,5.7,6.078c1.636,1.238,6.985,5.969,5.9,7.76s-2.3,1.392-2.3,1.392l-9.573-6.632s-3.36-2.409-4.044-3.558A26.59,26.59,0,0,1,465,402.072Z" transform="translate(-391.874 -335.96)" opacity="0.03"/>
    <path id="Path_50" data-name="Path 50" d="M398.93,313.32l6.874,9.217-6.19,2.41-2.564-7.716Z" transform="translate(-326.842 -257.907)" fill="#dce6f2"/>
    <path id="Path_51" data-name="Path 51" d="M398.93,313.32l6.874,9.217-6.19,2.41-2.564-7.716Z" transform="translate(-326.842 -257.907)" opacity="0.03"/>
    <path id="Path_52" data-name="Path 52" d="M444.761,485.77,446,487.583l1.061,27.146s.088,2.564-.663,3.316-6.9.265-6.9.265.221-27.676.31-28.207S444.761,485.77,444.761,485.77Z" transform="translate(-370.883 -406.858)" fill="#575988"/>
    <path id="Path_53" data-name="Path 53" d="M444.761,485.77,446,487.583l1.061,27.146s.088,2.564-.663,3.316-6.9.265-6.9.265.221-27.676.31-28.207S444.761,485.77,444.761,485.77Z" transform="translate(-370.883 -406.858)" opacity="0.1"/>
    <path id="Path_54" data-name="Path 54" d="M373.095,669.5a22.436,22.436,0,0,1-1.415,2.872s-1.15,6.559-1.639,7.164c-.354.442-.516,3.742-.575,5.463-.021.622-.03,1.038-.03,1.038l-6.759,3.222-.03-4.258v-.057h0c-.042-.939-.531-11.815.493-12.448.6-.373,1.174-1.945,1.562-3.234.3-1,.481-1.829.481-1.829s7.509-.488,8.135.317C373.548,668.04,373.388,668.737,373.095,669.5Z" transform="translate(-307.495 -556.278)" fill="#ffc1c8"/>
    <path id="Path_55" data-name="Path 55" d="M383.324,669.463c-3.045-.064-6.862-.193-8.4-.248.3-1,.481-1.829.481-1.829s7.509-.488,8.135.317C383.776,668,383.617,668.7,383.324,669.463Z" transform="translate(-317.724 -556.236)" opacity="0.1"/>
    <path id="Path_56" data-name="Path 56" d="M364.194,451.3s-2.078,11.053-1.68,18.171-.31,12.376.575,14.457.884,6.809.884,6.809,12.025.442,13.263.265,1.194-1.105,1.194-1.105-.84-7.343-.044-9.642.663-9.329.663-9.329l3.36-11.318s1.017-5.084-1.105-7.162S364.194,451.3,364.194,451.3Z" transform="translate(-307.47 -378.312)" fill="#575988"/>
    <path id="Path_57" data-name="Path 57" d="M601.284,640.715l-.531.778-3.281,4.881-2.785.84-2.078-2.034.1-1.342.518-6.969s-12.857-7.564-14.006-8.978-5.571-2.7-5.571-2.7-6.764-3.139-9.284-8.621,4.2-6.322,4.2-6.322l25.245,24.143Z" transform="translate(-473.204 -509.324)" fill="#ffc1c7"/>
    <path id="Path_58" data-name="Path 58" d="M683.444,744.13l-3.281,4.881-2.785.84-2.078-2.034.1-1.342,2.287,1.961,4.289-5Z" transform="translate(-555.885 -611.963)" opacity="0.1"/>
    <path id="Path_59" data-name="Path 59" d="M706.221,787.391l-8,7.472a29.988,29.988,0,0,1-8.71.265c-2.628-.4-2.122-1.837-1.431-2.83l.012-.018a2.907,2.907,0,0,1,1.7-1.121,6.89,6.89,0,0,0,4.577-3.284L696.848,790l4.289-5,3.171,1.489Z" transform="translate(-575.045 -653.171)" fill="#575988"/>
    <path id="Path_60" data-name="Path 60" d="M705.7,794.827l-8,7.475a29.988,29.988,0,0,1-8.71.265c-2.628-.4-2.3-1.837-1.608-2.83a5.481,5.481,0,0,0,2.757,1.148,44.026,44.026,0,0,0,5.659,0l7.99-6.955Z" transform="translate(-574.524 -660.521)" fill="#fff"/>
    <path id="Path_61" data-name="Path 61" d="M378.184,282.483c-.651.325-.95,1.33-1.07,2.476a21.156,21.156,0,0,0,.126,4.311s-8.842-2.417-7.9-2.89c.543-.271.831-2.241.978-3.862.11-1.2.141-2.209.141-2.209S379.952,281.6,378.184,282.483Z" transform="translate(-313.074 -237.733)" fill="#ffc1c8"/>
    <path id="Path_62" data-name="Path 62" d="M727.106,290.381s-10.729,10.138-10.375,7.192a3.583,3.583,0,0,0-.371-1.648c-.992-2.391-3.735-6.1-5.88-8.817-1.574-1.991-2.83-3.447-2.83-3.447s13.325-11.2,12.264-4.833a7.639,7.639,0,0,0,.582,4.276c1.328,3.127,4.271,5.587,5.74,6.672C726.767,290.167,727.106,290.381,727.106,290.381Z" transform="translate(-591.612 -234.901)" fill="#ffc1c7"/>
    <path id="Path_63" data-name="Path 63" d="M718.458,280.772c-.193.239-.907,1.077-1.119,1.3-2.016,2.1-2.285,5.128-5.424,5.128a11.019,11.019,0,0,1-1.415-.09c-1.574-1.991-2.83-3.447-2.83-3.447s13.322-11.2,12.261-4.833C719.68,280.338,717.9,279.449,718.458,280.772Z" transform="translate(-591.629 -234.901)" opacity="0.1"/>
    <path id="Path_64" data-name="Path 64" d="M691.156,219.021a11.039,11.039,0,1,1-3.233-7.848A11.083,11.083,0,0,1,691.156,219.021Z" transform="translate(-559.789 -178.16)" fill="#ffc1c7"/>
    <path id="Path_65" data-name="Path 65" d="M767.647,349.953s-10.729,10.139-10.375,7.192a3.584,3.584,0,0,0-.371-1.648l1.551-3.657a10.492,10.492,0,0,1,6.863-2.6,9.984,9.984,0,0,1,1.374.094l.088.014C767.307,349.739,767.647,349.953,767.647,349.953Z" transform="translate(-632.153 -294.473)" opacity="0.1"/>
    <path id="Path_66" data-name="Path 66" d="M624.636,425.874s-7.6,12.142-7.6,13.087c0,0-8.607-3.36-11.672-4.067s-5.954-7.132-5.954-7.132-8.135-7.664-11.318-8.726c-2.7-.9-15.677-19.205-19.543-24.728a3.891,3.891,0,0,1,.092-4.589l.073-.094a9.035,9.035,0,0,1,8.743-3.257,9.127,9.127,0,0,1,1.061.262c5.567,1.721,15.209,4.678,20.072,6.013a20.437,20.437,0,0,0,2.936.691c.531-.055.822-.531.983-1.052a5,5,0,0,0,.2-1.305v-.08a22.441,22.441,0,0,0-.7-3.325c-.568-1.945-1.551-4.228-3.183-5.319-1.355-.9-2.432-2.9-3-5.213-.759-3.128-.584-6.851,1.109-9.288l1.636-3.859,2.736-6.455,1.524-3.6a10.493,10.493,0,0,1,6.863-2.6,9.978,9.978,0,0,1,1.374.094,3.562,3.562,0,0,1,2.609,1.208c1.3,2.122,4.244,6.013,4.833,9.9s-.117,10.257,1.887,12.616,3.183,8.016,5.305,9.2-3.418,3.654-3.418,3.654l.021.373.1,1.632s.039.044.11.133C623.74,391.577,634.893,406.246,624.636,425.874Z" transform="translate(-476.528 -296.119)" fill="#ff6584"/>
    <path id="Path_67" data-name="Path 67" d="M783.934,562.5c-2.324.486-7.406,1.546-9.673,2.011l-.4.081c-.133.027-.281.051-.442.074a74.085,74.085,0,0,1-9.481.067,5,5,0,0,0,.2-1.305v-.08a74.71,74.71,0,0,0,9.293-1.155c.285-.058.566-.12.84-.177.4-.092.782-.189,1.149-.292a30.935,30.935,0,0,1,8.312-.983l.1,1.632S783.854,562.412,783.934,562.5Z" transform="translate(-637.948 -468.571)" fill="#575988"/>
    <path id="Path_68" data-name="Path 68" d="M818.34,567.92v2.5l-.4.081c-.133.026-.281.051-.442.074v-2.465C817.785,568.046,818.066,567.984,818.34,567.92Z" transform="translate(-682.036 -474.48)" fill="#ff6584"/>
    <path id="Path_69" data-name="Path 69" d="M752.39,595s-4.731,10.832-7.6,11.893-10.036,4.819-10.036,4.819a6.171,6.171,0,0,0,8.4-.354C747.439,607.379,753.628,596.768,752.39,595Z" transform="translate(-613.92 -496.771)" opacity="0.1"/>
    <path id="Path_70" data-name="Path 70" d="M861.83,586.77s.442,4.112-.177,4.863S861.83,586.77,861.83,586.77Z" transform="translate(-718.187 -489.997)" opacity="0.1"/>
    <path id="Path_71" data-name="Path 71" d="M834.211,602s2.387,25.024-9.461,25.156C824.75,627.16,835.847,616.148,834.211,602Z" transform="translate(-688.004 -502.533)" opacity="0.1"/>
    <path id="Path_72" data-name="Path 72" d="M890.311,636s3.4,13.131-1.061,14.634A33.306,33.306,0,0,0,890.311,636Z" transform="translate(-741.097 -530.521)" opacity="0.1"/>
    <path id="Path_73" data-name="Path 73" d="M740.467,617c-.221,0-9.2,1.547-7.251,2.785S740.467,617,740.467,617Z" transform="translate(-612.43 -514.881)" opacity="0.1"/>
    <path id="Path_74" data-name="Path 74" d="M810.5,516.77s7.339,6.5,5.924,7.206" transform="translate(-676.274 -432.376)" opacity="0.1"/>
    <path id="Path_75" data-name="Path 75" d="M807,528.52s4.244,5.217,3.758,5.526" transform="translate(-673.393 -442.048)" opacity="0.1"/>
    <path id="Path_76" data-name="Path 76" d="M858.25,524s1.945,2.432,1.636,2.962" transform="translate(-715.58 -438.327)" opacity="0.1"/>
    <path id="Path_77" data-name="Path 77" d="M869.25,516.77s2.785,2.163,2.166,3.006" transform="translate(-724.634 -432.376)" opacity="0.1"/>
    <path id="Path_78" data-name="Path 78" d="M747.795,367.77s9.063.707,8.665,8a10.19,10.19,0,0,1-7.162,9.152l-8.8-2.52S744.435,368.256,747.795,367.77Z" transform="translate(-618.653 -309.726)" fill="#ffc1c7"/>
    <path id="Path_79" data-name="Path 79" d="M623.258,550.132c5.567,1.721,15.209,4.678,20.072,6.013a2.571,2.571,0,0,1-2.074.115l-18.348-6.053-.718-.336A9.122,9.122,0,0,1,623.258,550.132Z" transform="translate(-521.266 -459.622)" opacity="0.1"/>
    <path id="Path_80" data-name="Path 80" d="M739.824,385.482c-.861,1.15-1.62,2.387-1.592,3.162a18.527,18.527,0,0,1-.845,3.659,61.168,61.168,0,0,1-5.129,12.153c-.568-1.945-1.551-4.228-3.183-5.319-1.355-.9-2.432-2.9-3-5.213a30.67,30.67,0,0,1,1.006-3.422,47.844,47.844,0,0,0,1.238-5.924,26.475,26.475,0,0,1,.5-3.8,16.016,16.016,0,0,1,2.736-6.455,7.639,7.639,0,0,1,2.3-2.168l2.608-.4c3.006-.1,4.456,2.186,5.155,4.692A10.484,10.484,0,0,1,739.824,385.482Z" transform="translate(-606.783 -313.003)" opacity="0.1"/>
    <path id="Path_81" data-name="Path 81" d="M570.057,368.182s-4.907,2.52-5.526,12.423a47.846,47.846,0,0,1-1.238,5.924c-.442.884-2.564,9.24-2.3,10.257,0,0-.442,1.017-2.078.575s-10.478-1.813-12.468-3.139l-5.482-2.608s-10.7-7.56-12.954-1.061,10.566,6.237,10.566,6.237l6.057,2.829,18.348,6.053s2.432,1.105,4.067-2.432c.408-.884.845-1.724,1.271-2.488a61.477,61.477,0,0,0,5.272-12.411,17.881,17.881,0,0,0,.845-3.659,6.813,6.813,0,0,1,1.592-3.162,10.424,10.424,0,0,0,1.786-9.037c-.7-2.506-2.156-4.792-5.155-4.69Z" transform="translate(-443.523 -309.743)" fill="#ffc1c7"/>
    <path id="Path_82" data-name="Path 82" d="M383.064,282.451c-.651.325-.95,1.33-1.07,2.476h-.345a9.673,9.673,0,0,1-6.45-2.448c.11-1.2.141-2.209.141-2.209S384.833,281.566,383.064,282.451Z" transform="translate(-317.954 -237.7)" opacity="0.1"/>
    <path id="Path_83" data-name="Path 83" d="M376.123,204.326A9.726,9.726,0,1,1,366.4,194.6,9.726,9.726,0,0,1,376.123,204.326Z" transform="translate(-302.701 -167.18)" fill="#ffc1c8"/>
    <path id="Path_84" data-name="Path 84" d="M366.5,332.608s-5.084,2.034-6.676,2.741-10.7-.928-10.7-.928-4.731-2.387-4.333-4.775-3.8-10.209-3.8-10.209-.133-6.941,1.724-8.268,1.149-4.112,1.149-4.112.009-.092.037-.242a3.34,3.34,0,0,1,1.908-2.587,1.828,1.828,0,0,1,.854-.023,22.176,22.176,0,0,1,5.286,2.09c1.486.752,2.715,1.45,3,1.613l.06.034s.663,1.547,1.459,1.061,4.775,1.768,5.526,2.785.221,5.792.088,6.985a18.687,18.687,0,0,0,1.724,6.761C364.776,327.564,366.5,332.608,366.5,332.608Z" transform="translate(-289.793 -257.369)" opacity="0.1"/>
    <path id="Path_85" data-name="Path 85" d="M366.5,329.608s-5.084,2.034-6.676,2.741-10.7-.928-10.7-.928-4.731-2.387-4.333-4.775-3.8-10.209-3.8-10.209-.133-6.941,1.724-8.267,1.149-4.112,1.149-4.112.009-.092.037-.242a3.34,3.34,0,0,1,1.908-2.587,1.828,1.828,0,0,1,.854-.023,22.176,22.176,0,0,1,5.286,2.09c1.486.752,2.715,1.45,3,1.613l.06.034s.663,1.547,1.459,1.061,4.775,1.768,5.526,2.785.221,5.792.088,6.985a18.687,18.687,0,0,0,1.724,6.761C364.776,324.564,366.5,329.608,366.5,329.608Z" transform="translate(-289.793 -254.9)" fill="#dce6f2"/>
    <path id="Path_86" data-name="Path 86" d="M368.57,423.188s-4.363,7.074-5.07,7.458l.265,2.476s6.22-1.3,6.6-3.036a46.3,46.3,0,0,0,.177-6.985Z" transform="translate(-308.324 -355.271)" fill="#575988"/>
    <path id="Path_87" data-name="Path 87" d="M368.57,423.188s-4.363,7.074-5.07,7.458l.265,2.476s6.22-1.3,6.6-3.036a46.3,46.3,0,0,0,.177-6.985Z" transform="translate(-308.324 -355.271)" opacity="0.2"/>
    <path id="Path_88" data-name="Path 88" d="M426.88,372.64s.773,2.985,1.99,4S426.88,372.64,426.88,372.64Z" transform="translate(-360.495 -313.734)" opacity="0.1"/>
    <path id="Path_89" data-name="Path 89" d="M384,408.289c.111.2,3.846,5.284,7.781,7.162s12.712,4.09,12.712,4.09,7.118,1.326,8.333,1.834,2.764-1.768-4.863-5.017-9.107-4.686-9.107-4.686-6.632-3.231-7.693-4.823S384,408.289,384,408.289Z" transform="translate(-325.198 -341.514)" fill="#ffc1c8"/>
    <path id="Path_90" data-name="Path 90" d="M399.75,545.844c.133-.088,3.316-3.493,3.714-2.034S399.75,545.844,399.75,545.844Z" transform="translate(-338.163 -454.335)" opacity="0.1"/>
    <path id="Path_91" data-name="Path 91" d="M402.018,519c-.044.133-.486,3.891-1.768,4.333" transform="translate(-338.574 -434.211)" opacity="0.1"/>
    <path id="Path_92" data-name="Path 92" d="M405.608,524.77s-1.149,4.023-2.608,4.285" transform="translate(-340.838 -438.961)" opacity="0.1"/>
    <path id="Path_93" data-name="Path 93" d="M384.75,587.444s1.945.044,2.211-1.194" transform="translate(-325.816 -489.569)" opacity="0.1"/>
    <path id="Path_94" data-name="Path 94" d="M399.75,638.52c.265.044,4.421,2.7,3.36,3.227S399.75,638.52,399.75,638.52Z" transform="translate(-338.163 -532.595)" opacity="0.1"/>
    <path id="Path_95" data-name="Path 95" d="M370.139,765.14v.409c-.021.622-.03,1.038-.03,1.038l-6.759,3.222-.03-4.258v-.057h0v-.288l2.706.087Z" transform="translate(-308.175 -636.823)" opacity="0.1"/>
    <path id="Path_96" data-name="Path 96" d="M319.558,733.4l-5.638,2.158-2.531-1.5.027-2.048.058-4.4,2.706.087,4.113-.143v3.079Z" transform="translate(-256.33 -598.891)" fill="#ff748f"/>
    <path id="Path_97" data-name="Path 97" d="M370.978,785.843,365.341,788l-2.531-1.5.027-2.048a4.1,4.1,0,0,0,3.109,1.609,18.668,18.668,0,0,1,3.192-3.194.737.737,0,0,1,.577-.078v.288Z" transform="translate(-307.756 -651.333)" opacity="0.1"/>
    <path id="Path_98" data-name="Path 98" d="M356.692,788.047a4.065,4.065,0,0,1-3.452-2.158,7.11,7.11,0,0,0-1.669,4.92,31.92,31.92,0,0,0,.03,3.452s6.616-.258,7.854.2,11.622-.4,11.622-.4.69-1.813-2.446-2.446-5.724-3.97-5.811-4.113-1.726-3.36-2.934-2.653A18.292,18.292,0,0,0,356.692,788.047Z" transform="translate(-298.497 -652.962)" fill="#5d618c"/>
    <path id="Path_99" data-name="Path 99" d="M411.98,188.371l-.66-.09.412-.011Z" transform="translate(-347.687 -161.969)" opacity="0.1"/>
    <path id="Path_100" data-name="Path 100" d="M376.1,204.373a9.747,9.747,0,0,1-.26,2.241,1.557,1.557,0,0,1-.419-.177c-.189-.122-.378-.29-.6-.271a.717.717,0,0,0-.354.163c-1.047.766-1.825,2.025-3.1,2.269a2.044,2.044,0,0,0,.05-1.157,2.393,2.393,0,0,1-2.1.672,1.01,1.01,0,0,0,.03-.7,20.3,20.3,0,0,1-2.792,1.3c-.034-.177-.065-.34-.1-.509-1.355.661-1.249,2.906-2.6,3.567-.806.394-1.945.111-2.5.822-.021.028-.041.057-.06.087a9.726,9.726,0,1,1,14.8-8.3Z" transform="translate(-302.68 -167.226)" opacity="0.1"/>
    <path id="Path_101" data-name="Path 101" d="M351.057,183.082a9.558,9.558,0,0,0-2.525-.778,3.211,3.211,0,0,0-2.49.656c-.531.467-.946,1.217-1.653,1.238a2.128,2.128,0,0,1-.973-.311,2.82,2.82,0,0,0-2.787-.1,2.9,2.9,0,0,0-.98,2.051,6.561,6.561,0,0,1-.5,2.272,10.078,10.078,0,0,1-.861,1.158,5,5,0,0,0-.962,3.42,9.932,9.932,0,0,0,.386,1.777l.722,2.548a15.051,15.051,0,0,0,1.436,3.758,5.093,5.093,0,0,0,3.077,2.439,2.058,2.058,0,0,0,2.186-.645c.113-.177.186-.366.31-.531.548-.707,1.7-.426,2.5-.821,1.355-.661,1.249-2.906,2.6-3.567l.1.508a20.577,20.577,0,0,0,2.791-1.294,1.02,1.02,0,0,1-.028.695,2.4,2.4,0,0,0,2.094-.672,2.044,2.044,0,0,1-.05,1.157c1.273-.246,2.051-1.5,3.1-2.271a.73.73,0,0,1,.354-.161c.225-.019.412.149.6.269a1.694,1.694,0,0,0,2.094-.267,2.614,2.614,0,0,0,.4-2.338,19.587,19.587,0,0,1-.607-2.387c-.111-1.116.278-2.281-.08-3.342a3.693,3.693,0,0,0-1.945-1.981c-.851-.428-1.768-.677-2.637-1.061-.824-.37-1.592-.865-2.448-1.157a11.089,11.089,0,0,0-3.891-.354" transform="translate(-286.764 -157.036)" fill="#794f6a"/>
    <path id="Path_102" data-name="Path 102" d="M337.8,330.9s1.415-9.52-10.7-9.049l-6.1.812s5.82,1.047,7.221,1.2l.149.021C329.665,324.122,334.147,323.827,337.8,330.9Z" transform="translate(-273.339 -271.914)" fill="#6c63ff"/>
    <path id="Path_103" data-name="Path 103" d="M372.25,578.5v-.11C377.218,574.1,372.25,578.5,372.25,578.5Z" transform="translate(-315.526 -481.553)" opacity="0.1"/>
    <path id="Path_104" data-name="Path 104" d="M232.591,482.329a12,12,0,0,1-2.14,0l-14.882-21.66a2.618,2.618,0,0,1,1.558-1.4Z" transform="translate(-186.554 -385.044)" fill="#575988"/>
    <path id="Path_105" data-name="Path 105" d="M223.616,392.026l-.707.84s-5.365-8.913-6.519-13.44a1.064,1.064,0,0,1,.55-.624s.559-.412,1.459-1.061A46.232,46.232,0,0,0,223.616,392.026Z" transform="translate(-187.229 -317.932)" fill="#575988"/>
    <path id="Path_106" data-name="Path 106" d="M253.56,372.826l-1.415.8c-3.862-4.52-4.191-12.114-4.156-15.14l1.019-.732C249.146,361.724,253.56,372.826,253.56,372.826Z" transform="translate(-213.238 -301.478)" fill="#575988"/>
    <path id="Path_107" data-name="Path 107" d="M297.765,438.52c-.044.575-1.68,6.411.707,7.383S297.765,438.52,297.765,438.52Z" transform="translate(-253.729 -367.964)" opacity="0.1"/>
    <path id="Path_108" data-name="Path 108" d="M329.5,482.717c.088.309.884,10.39,2.608,9.594s.8-12.291.8-12.291Z" transform="translate(-280.336 -402.125)" opacity="0.1"/>
    <path id="Path_109" data-name="Path 109" d="M696.037,218.95a11.039,11.039,0,0,1-3.091,7.675,6.459,6.459,0,0,1-2.458.042,2.448,2.448,0,0,1-1.149-.462,2.991,2.991,0,0,1-.745-1.077c-.645-1.388-.976-2.992-1.882-4.181s-2.743-1.71-3.616-.492c-.476.661-.555,1.678-1.19,2.136-.762.552-1.768-.1-2.361-.884-1.751-2.3-1.151-6.819-4.49-7.454l-.134-.023a11.083,11.083,0,0,1,21.117,4.718Z" transform="translate(-564.67 -178.09)" opacity="0.1"/>
    <path id="Path_110" data-name="Path 110" d="M667.215,200.282c-.541-.1-1.169-.09-1.531-.557a2.143,2.143,0,0,1-.327-1.02,8.745,8.745,0,0,1,.288-4.669c1.024-2.329,3.659-3.107,5.949-2.934s4.538,1.027,6.828.884c1.684-.11,3.344-.76,5.022-.575a10.22,10.22,0,0,1,3.76,1.482,8.994,8.994,0,0,1,3.052,2.4c1.164,1.6,1.383,3.811,1.415,5.885a16,16,0,0,1-1.155,7.107,7.548,7.548,0,0,1-7.868,4.405,2.448,2.448,0,0,1-1.149-.462,3.006,3.006,0,0,1-.743-1.077c-.647-1.39-.978-2.992-1.883-4.182s-2.743-1.708-3.617-.49c-.476.66-.555,1.678-1.19,2.136-.762.55-1.768-.1-2.361-.884C669.954,205.432,670.554,200.915,667.215,200.282Z" transform="translate(-556.654 -164.281)" fill="#945b79"/>
    <path id="Path_111" data-name="Path 111" d="M801.416,210.6a11.364,11.364,0,0,1,3.953,3.88,8.493,8.493,0,0,1,1.981,4.14,16.541,16.541,0,0,0,.074,1.9c.423,2.2,3.183,3.183,3.99,5.277a6.138,6.138,0,0,1,.092,3.128,42.215,42.215,0,0,1-.953,4.479,5.964,5.964,0,0,0-.327,2.7,8.294,8.294,0,0,0,.842,1.945,13.978,13.978,0,0,1,1.013,5.562,21.05,21.05,0,0,0,.628,5.64,6.079,6.079,0,0,0,3.625,4.108,4.26,4.26,0,0,1-2.041.725,1.7,1.7,0,0,0,.707,1.57,5.156,5.156,0,0,0,1.631.755,3.077,3.077,0,0,1-2.709.417,6.074,6.074,0,0,1-1.982-1.3l-3.39-2.916a9.572,9.572,0,0,1-1.25-1.217c-2.193-2.725-.884-6.855-2.108-10.128-1-2.662-3.678-4.823-3.433-7.654a9.988,9.988,0,0,1,.626-2.3,19.571,19.571,0,0,0-2.06-16.592,3.927,3.927,0,0,0-1.482-1.516c-.982-.469-2.384-.267-2.941-1.2a4.666,4.666,0,0,1-.38-1.915A9.78,9.78,0,0,1,801.416,210.6Z" transform="translate(-663.943 -179.745)" fill="#945b79"/>
    <path id="Path_112" data-name="Path 112" d="M341.154,357.845a6.437,6.437,0,0,1,11.237-3.247,14.122,14.122,0,0,1,2.492,3.848c1.768,4.465,1.9,4.863,1.9,4.863s-10.92,2.122-10.832,3.714L341,359.11S341.037,358.615,341.154,357.845Z" transform="translate(-289.803 -297.044)" opacity="0.1"/>
    <path id="Path_113" data-name="Path 113" d="M341.154,354.845a6.437,6.437,0,0,1,11.237-3.247,14.122,14.122,0,0,1,2.492,3.848c1.768,4.465,1.9,4.863,1.9,4.863s-10.92,2.122-10.832,3.714L341,356.11S341.037,355.615,341.154,354.845Z" transform="translate(-289.803 -294.575)" fill="#dce6f2"/>
    <path id="Path_114" data-name="Path 114" d="M359.25,340.89c.133.221,5.35,6.587,8.091,7.495S359.25,340.89,359.25,340.89Z" transform="translate(-304.825 -287.599)" opacity="0.1"/>
    <path id="Path_115" data-name="Path 115" d="M232.5,457.27s13.794,16.27,15.562,22.857" transform="translate(-200.49 -383.398)" opacity="0.1"/>
    <path id="Path_116" data-name="Path 116" d="M235.5,372.27s3.006,15.562,8.842,22.106,11.849,17.684,11.849,17.684" transform="translate(-202.96 -313.43)" fill="none" stroke="#000" stroke-miterlimit="10" stroke-width="2" opacity="0.1"/>
    <g id="Group_4" data-name="Group 4" transform="translate(50.457 30.66)" opacity="0.1">
      <path id="Path_117" data-name="Path 117" d="M445.971,244.24a2.108,2.108,0,0,1-.5,1.415,1.694,1.694,0,0,1-2.094.267c-.189-.12-.377-.288-.6-.269a.73.73,0,0,0-.354.161c-1,.729-1.749,1.9-2.918,2.226a2.043,2.043,0,0,1-.092.928c1.273-.246,2.051-1.5,3.1-2.271a.73.73,0,0,1,.354-.161c.225-.019.412.149.6.269a1.694,1.694,0,0,0,2.094-.267A2.611,2.611,0,0,0,445.971,244.24Z" transform="translate(-421.266 -238.701)"/>
      <path id="Path_118" data-name="Path 118" d="M472.421,215.141c.014.145.039.288.067.432a11.185,11.185,0,0,0,0-2.653C472.492,213.642,472.347,214.406,472.421,215.141Z" transform="translate(-448.422 -212.92)"/>
      <path id="Path_119" data-name="Path 119" d="M354.919,242.18a2.4,2.4,0,0,1-2.094.672,1.02,1.02,0,0,0,.028-.7,20.576,20.576,0,0,1-2.791,1.295l-.1-.508c-1.355.661-1.249,2.906-2.6,3.567-.806.394-1.945.11-2.5.821-.124.161-.2.354-.309.531a2.055,2.055,0,0,1-2.186.645,5.078,5.078,0,0,1-3.077-2.439,15.12,15.12,0,0,1-1.436-3.758l-.721-2.548c-.118-.424-.239-.849-.317-1.282a2.6,2.6,0,0,0,.019.389,9.929,9.929,0,0,0,.385,1.777l.722,2.548a15.051,15.051,0,0,0,1.436,3.758,5.093,5.093,0,0,0,3.077,2.439,2.058,2.058,0,0,0,2.186-.645c.113-.177.186-.366.31-.531.548-.707,1.7-.426,2.5-.821,1.355-.661,1.249-2.906,2.6-3.567l.1.508a20.576,20.576,0,0,0,2.785-1.295,1.021,1.021,0,0,1-.028.7,2.4,2.4,0,0,0,2.012-.6,2.043,2.043,0,0,0,0-.958Z" transform="translate(-336.81 -233.96)"/>
    </g>
    <path id="Path_120" data-name="Path 120" d="M368.537,307.908c-.951.548-3.162,1.768-3.609,1.56-.477-.221-5.687-2.044-7.427-2.653a3.34,3.34,0,0,1,1.908-2.587,1.829,1.829,0,0,1,.854-.023l5.284,2.09C367.027,307.047,368.256,307.745,368.537,307.908Z" transform="translate(-303.385 -257.369)" opacity="0.1"/>
    <path id="Path_121" data-name="Path 121" d="M368.537,304.908c-.951.548-3.162,1.768-3.609,1.56-.477-.221-5.687-2.044-7.427-2.653a3.34,3.34,0,0,1,1.908-2.587,1.829,1.829,0,0,1,.854-.023l5.284,2.09C367.027,304.047,368.256,304.745,368.537,304.908Z" transform="translate(-303.385 -254.9)" fill="#dce6f2"/>
    <path id="Path_122" data-name="Path 122" d="M691.751,223.005a14.158,14.158,0,0,1-1.151,5.728,7.548,7.548,0,0,1-7.868,4.405,2.448,2.448,0,0,1-1.15-.462,3.006,3.006,0,0,1-.743-1.077c-.647-1.39-.978-2.992-1.883-4.182s-2.743-1.708-3.616-.49c-.476.66-.555,1.678-1.19,2.136-.762.55-1.768-.1-2.361-.884-1.751-2.3-1.151-6.821-4.49-7.454-.541-.1-1.169-.09-1.531-.557a2.143,2.143,0,0,1-.327-1.02c-.06-.426-.111-.861-.141-1.3a12.88,12.88,0,0,0,.141,2.89,2.143,2.143,0,0,0,.327,1.02c.363.467.99.453,1.531.557,3.339.633,2.739,5.15,4.49,7.454.591.776,1.592,1.425,2.361.884.635-.458.707-1.477,1.19-2.136.874-1.218,2.711-.7,3.616.49s1.238,2.792,1.883,4.182a3.007,3.007,0,0,0,.743,1.077,2.448,2.448,0,0,0,1.15.462,7.548,7.548,0,0,0,7.868-4.405,16,16,0,0,0,1.155-7.107C691.751,223.139,691.751,223.069,691.751,223.005Z" transform="translate(-556.729 -186.318)" opacity="0.1"/>
    <g id="Group_5" data-name="Group 5" transform="translate(131.802 31.997)" opacity="0.1">
      <path id="Path_123" data-name="Path 123" d="M874.58,289.954a6.138,6.138,0,0,1,.092,3.128,42.212,42.212,0,0,1-.953,4.476,5.964,5.964,0,0,0-.327,2.7,8.292,8.292,0,0,0,.842,1.945,13.979,13.979,0,0,1,1.013,5.562,21.045,21.045,0,0,0,.628,5.64,6.963,6.963,0,0,0,2.03,3.2,7.46,7.46,0,0,1-1.146-2.249,20.976,20.976,0,0,1-.628-5.64,13.934,13.934,0,0,0-1.013-5.56,8.569,8.569,0,0,1-.842-1.945,6.046,6.046,0,0,1,.327-2.7,42.187,42.187,0,0,0,.953-4.488,6.146,6.146,0,0,0-.092-3.13,5.765,5.765,0,0,0-1.516-2.021A4.132,4.132,0,0,1,874.58,289.954Z" transform="translate(-859.796 -276.776)"/>
      <path id="Path_124" data-name="Path 124" d="M899.5,453.056a4.619,4.619,0,0,1-1.316-.686,4.276,4.276,0,0,1-1.609.467,1.7,1.7,0,0,0,.707,1.57,2.451,2.451,0,0,0,.3.207,1.414,1.414,0,0,1-.118-.833,4.3,4.3,0,0,0,2.035-.725Z" transform="translate(-878.913 -411.361)"/>
      <path id="Path_125" data-name="Path 125" d="M799,221.083c-.674-.322-1.546-.329-2.207-.6a1.807,1.807,0,0,0,.15.354c.557.934,1.959.732,2.941,1.2a2.413,2.413,0,0,1,.354.218A3.4,3.4,0,0,0,799,221.083Z" transform="translate(-796.79 -220.48)"/>
      <path id="Path_126" data-name="Path 126" d="M869.456,448.9a3.072,3.072,0,0,1-2.138.1,6.072,6.072,0,0,1-1.982-1.3l-3.39-2.916c-.161-.138-.32-.278-.476-.419.035.048.071.1.11.145a9.462,9.462,0,0,0,1.25,1.217l3.39,2.918a6.1,6.1,0,0,0,1.983,1.3,3.077,3.077,0,0,0,2.709-.419A5.728,5.728,0,0,1,869.456,448.9Z" transform="translate(-850.032 -404.776)"/>
      <path id="Path_127" data-name="Path 127" d="M840.209,223.188a8.492,8.492,0,0,1,1.981,4.14,16.541,16.541,0,0,0,.074,1.9,4.728,4.728,0,0,0,1.618,2.456,3.491,3.491,0,0,1-.734-1.512,16.573,16.573,0,0,1-.074-1.9,8.433,8.433,0,0,0-1.981-4.138,18.912,18.912,0,0,0-2.173-2.623C839.375,222.048,839.8,222.621,840.209,223.188Z" transform="translate(-831.47 -221.328)"/>
    </g>
    <path id="Path_128" data-name="Path 128" d="M801.494,210.27s-1.061,1.768,1.945,3.242l.177-.472Z" transform="translate(-668.711 -180.079)" opacity="0.1"/>
    <path id="Path_129" data-name="Path 129" d="M800.494,210.27s-1.061,1.768,1.945,3.242l.177-.472Z" transform="translate(-667.888 -180.079)" fill="#ff6584"/>
    <path id="Path_130" data-name="Path 130" d="M1025.6,776.26s.973,1.272-.448,3.183-2.591,3.537-2.122,4.734c0,0,2.143-3.563,3.891-3.613S1027.52,778.4,1025.6,776.26Z" transform="translate(-851.134 -645.976)" fill="#6c63ff"/>
    <path id="Path_131" data-name="Path 131" d="M1025.867,776.26a1.6,1.6,0,0,1,.2.4c1.7,2,2.607,3.866.971,3.912-1.523.044-3.349,2.768-3.788,3.456.014.053.032.1.051.157,0,0,2.143-3.563,3.891-3.613S1027.786,778.4,1025.867,776.26Z" transform="translate(-851.4 -645.976)" opacity="0.1"/>
    <path id="Path_132" data-name="Path 132" d="M1047.225,784.072c0,.447-.051.81-.113.81s-.111-.354-.111-.81.062-.237.124-.237S1047.225,783.624,1047.225,784.072Z" transform="translate(-870.95 -652.168)" fill="#ffd037"/>
    <path id="Path_133" data-name="Path 133" d="M1048.205,787.009c-.392.214-.736.343-.764.288s.264-.272.656-.486.239-.058.269,0S1048.6,786.795,1048.205,787.009Z" transform="translate(-871.312 -654.571)" fill="#ffd037"/>
    <path id="Path_134" data-name="Path 134" d="M998.846,776.26s-.973,1.272.448,3.183,2.591,3.537,2.122,4.734c0,0-2.142-3.563-3.891-3.613S996.934,778.4,998.846,776.26Z" transform="translate(-829.516 -645.976)" fill="#6c63ff"/>
    <path id="Path_135" data-name="Path 135" d="M998.828,776.26a1.6,1.6,0,0,0-.2.4c-1.7,2-2.607,3.866-.971,3.912,1.523.044,3.349,2.768,3.788,3.456a1.37,1.37,0,0,1-.053.157s-2.142-3.563-3.891-3.613S996.916,778.4,998.828,776.26Z" transform="translate(-829.498 -645.976)" opacity="0.1"/>
    <path id="Path_136" data-name="Path 136" d="M998.82,784.072c0,.447.051.81.113.81s.111-.354.111-.81-.062-.237-.124-.237S998.82,783.624,998.82,784.072Z" transform="translate(-831.29 -652.168)" fill="#ffd037"/>
    <path id="Path_137" data-name="Path 137" d="M994.206,787.009c.393.214.734.343.764.288s-.263-.272-.656-.486-.239-.058-.269,0S993.813,786.795,994.206,787.009Z" transform="translate(-827.295 -654.571)" fill="#ffd037"/>
    <path id="Path_138" data-name="Path 138" d="M1000.57,813.274s2.716-.085,3.537-.667,4.179-1.28,4.382-.354,4.082,4.649,1.015,4.674-7.125-.477-7.942-.974S1000.57,813.274,1000.57,813.274Z" transform="translate(-832.731 -675.234)" fill="#a8a8a8"/>
    <path id="Path_139" data-name="Path 139" d="M1009.557,823.451c-3.066.025-7.125-.477-7.942-.974-.622-.38-.87-1.74-.953-2.366h-.092s.177,2.191.99,2.69,4.876,1,7.942.974c.884,0,1.19-.322,1.174-.789C1010.549,823.274,1010.215,823.451,1009.557,823.451Z" transform="translate(-832.731 -682.072)" opacity="0.2"/>
    <path id="Path_140" data-name="Path 140" d="M283.482,787.237a2.066,2.066,0,0,0,.679-1.022.914.914,0,0,0-.474-1.043c-.435-.166-.9.136-1.252.44a1.672,1.672,0,0,1-1.218.587,1.852,1.852,0,0,0,.573-1.735.729.729,0,0,0-.159-.354c-.241-.258-.679-.147-.969.057a3.6,3.6,0,0,0-1.18,3.019,5.568,5.568,0,0,1-.018-1.238,1.273,1.273,0,0,0-.467-1.1,1.415,1.415,0,0,0-.707-.177,1.473,1.473,0,0,0-1.157.329,1.137,1.137,0,0,0,.046,1.415,4.588,4.588,0,0,0,1.2.959,2.652,2.652,0,0,1,.856.815.854.854,0,0,1,.064.147h2.58A7.21,7.21,0,0,0,283.482,787.237Z" transform="translate(-237.043 -652.315)" fill="#6c63ff"/>
    <path id="Path_141" data-name="Path 141" d="M193.124,692.91s-2.476-8.435.465-14.646a13.336,13.336,0,0,0,1.079-8.359,22.505,22.505,0,0,0-1.185-3.924" transform="translate(-167.275 -555.199)" fill="none" stroke="#535461" stroke-miterlimit="10" stroke-width="2"/>
    <path id="Path_142" data-name="Path 142" d="M192.646,635.073c0,1.033-1.873,4.032-1.873,4.032s-1.873-3.006-1.873-4.032a1.873,1.873,0,1,1,3.746,0Z" transform="translate(-164.601 -528.216)" fill="#6c63ff"/>
    <path id="Path_143" data-name="Path 143" d="M210.063,662.719c-.562.868-3.763,2.368-3.763,2.368s.057-3.537.619-4.4a1.873,1.873,0,1,1,3.145,2.034Z" transform="translate(-178.924 -550.135)" fill="#6c63ff"/>
    <path id="Path_144" data-name="Path 144" d="M206.124,715.019c-.923.465-4.444.143-4.444.143s1.836-3.02,2.759-3.487a1.873,1.873,0,1,1,1.685,3.344Z" transform="translate(-175.121 -592.647)" fill="#6c63ff"/>
    <path id="Path_145" data-name="Path 145" d="M196.526,757.233c-.831.615-4.356.884-4.356.884s1.3-3.288,2.122-3.9a1.873,1.873,0,1,1,2.226,3.006Z" transform="translate(-167.292 -627.48)" fill="#6c63ff"/>
    <path id="Path_146" data-name="Path 146" d="M181.247,675.565c.741.722,4.2,1.468,4.2,1.468s-.847-3.433-1.592-4.154a1.873,1.873,0,1,0-2.608,2.686Z" transform="translate(-157.802 -560.414)" fill="#6c63ff"/>
    <path id="Path_147" data-name="Path 147" d="M168.209,723.168c.923.465,4.444.145,4.444.145s-1.834-3.022-2.759-3.487a1.872,1.872,0,1,0-1.685,3.342Z" transform="translate(-146.721 -599.356)" fill="#6c63ff"/>
    <path id="Path_148" data-name="Path 148" d="M165.582,773.215c.831.614,4.356.884,4.356.884s-1.3-3.289-2.122-3.9a1.873,1.873,0,0,0-2.226,3.006Z" transform="translate(-144.847 -640.724)" fill="#6c63ff"/>
    <path id="Path_149" data-name="Path 149" d="M192.646,635.073c0,1.033-1.873,4.032-1.873,4.032s-1.873-3.006-1.873-4.032a1.873,1.873,0,1,1,3.746,0Z" transform="translate(-164.601 -528.216)" fill="#6c63ff"/>
    <path id="Path_150" data-name="Path 150" d="M210.063,662.719c-.562.868-3.763,2.368-3.763,2.368s.057-3.537.619-4.4a1.873,1.873,0,1,1,3.145,2.034Z" transform="translate(-178.924 -550.135)" fill="#6c63ff"/>
    <path id="Path_151" data-name="Path 151" d="M206.124,715.019c-.923.465-4.444.143-4.444.143s1.836-3.02,2.759-3.487a1.873,1.873,0,1,1,1.685,3.344Z" transform="translate(-175.121 -592.647)" fill="#6c63ff"/>
    <path id="Path_152" data-name="Path 152" d="M196.526,757.233c-.831.615-4.356.884-4.356.884s1.3-3.288,2.122-3.9a1.873,1.873,0,1,1,2.226,3.006Z" transform="translate(-167.292 -627.48)" fill="#6c63ff"/>
    <path id="Path_153" data-name="Path 153" d="M181.247,675.565c.741.722,4.2,1.468,4.2,1.468s-.847-3.433-1.592-4.154a1.873,1.873,0,1,0-2.608,2.686Z" transform="translate(-157.802 -560.414)" fill="#6c63ff"/>
    <path id="Path_154" data-name="Path 154" d="M168.209,723.168c.923.465,4.444.145,4.444.145s-1.834-3.022-2.759-3.487a1.872,1.872,0,1,0-1.685,3.342Z" transform="translate(-146.721 -599.356)" fill="#6c63ff"/>
    <path id="Path_155" data-name="Path 155" d="M165.582,773.215c.831.614,4.356.884,4.356.884s-1.3-3.289-2.122-3.9a1.873,1.873,0,0,0-2.226,3.006Z" transform="translate(-144.847 -640.724)" fill="#6c63ff"/>
    <path id="Path_156" data-name="Path 156" d="M164.45,801.519s3.026-.6,3.832-1.4,4.439-2.2,4.842-1.2,5.447,4.407,2.018,5.008-8.069.8-9.079.4S164.45,801.519,164.45,801.519Z" transform="translate(-144.474 -664.339)" fill="#a8a8a8"/>
    <path id="Path_157" data-name="Path 157" d="M175.142,817.191c-3.431.6-8.069.8-9.079.4-.768-.306-1.3-1.768-1.512-2.453l-.1.021s.6,2.4,1.613,2.8,5.648.2,9.079-.4c.989-.177,1.271-.582,1.165-1.1C176.219,816.8,175.878,817.061,175.142,817.191Z" transform="translate(-144.474 -677.981)" opacity="0.2"/>
  </g>
</svg>
