<svg xmlns="http://www.w3.org/2000/svg" width="194.018" height="145.162"><defs><linearGradient id="a" x1=".5" y1="1" x2=".5" gradientUnits="objectBoundingBox"><stop offset="0" stop-color="gray" stop-opacity=".251"/><stop offset=".54" stop-color="gray" stop-opacity=".122"/><stop offset="1" stop-color="gray" stop-opacity=".102"/></linearGradient></defs><g transform="translate(.01 -.005)"><ellipse data-name="Ellipse 8" cx="61.689" cy="3.339" rx="61.689" ry="3.339" transform="translate(39.23 138.489)" fill="#6c63ff" opacity=".1"/><path data-name="Path 1" d="M135.862 128.738l-.531.778-3.281 4.881-2.785.84-2.078-2.034.1-1.342.518-6.969s-12.857-7.564-14.006-8.978-5.571-2.7-5.571-2.7-6.764-3.139-9.284-8.621 4.2-6.322 4.2-6.322l25.245 24.143z" fill="#ffc1c7"/><path data-name="Path 2" d="M138.957 131.568l-8 7.472a29.987 29.987 0 01-8.71.265c-2.628-.4-2.122-1.837-1.431-2.83l.012-.018a2.907 2.907 0 011.7-1.121 6.889 6.889 0 004.577-3.284l2.479 2.125 4.289-5 3.171 1.489z" fill="#575988"/><path data-name="Line 2" fill="#fff" d="M129.053 137.711l7.99-6.955"/><path data-name="Path 3" d="M137.044 130.67l-1.883-.884.177-.269.531-.778-7.477-6.322-25.246-24.14s-6.72.836-4.2 6.319 9.284 8.621 9.284 8.621 4.421 1.282 5.571 2.7 14.015 8.975 14.015 8.975l-.518 6.969-.025.332-.164-.14a6.89 6.89 0 01-4.577 3.284 2.907 2.907 0 00-1.7 1.121l-.012.018c-.707.99-1.2 2.432 1.431 2.83a29.988 29.988 0 008.71-.265l8-7.472z" opacity=".1"/><path data-name="Path 4" d="M2.088 76.044c3.07 13.122 9.569 24.465 19.838 29.966 21.347 11.428 69.486 5.533 105.412-1.238a82.261 82.261 0 0046.783-26.744z" fill="#6c63ff" opacity=".1"/><path data-name="Path 5" d="M190.49 14.279h-19.714a1.704 1.704 0 010-3.408h3.408a1.703 1.703 0 110-3.406h-2.433a1.704 1.704 0 010-3.408h10.289a27.222 27.222 0 00-8.027-2.212c-28.055-3.6-38.071-1.22-41.6 1.238a39.288 39.288 0 01-14.42 6.32c-17.31 3.57-49.681 7.866-79.021-1.376C24.384 3.43 13.547 11.196 7.05 24.17h186.861a30.448 30.448 0 00-2.315-10.3 1.7 1.7 0 01-1.106.409z" fill="#6c63ff" opacity=".1"/><path data-name="Path 6" d="M.415 48.654a86.861 86.861 0 00.764 22.894l173.071 6.33a81.27 81.27 0 0012.025-18.339zm68.453 16.33H65.46a1.704 1.704 0 110 3.408H45.75a1.704 1.704 0 010-3.408h3.4a1.703 1.703 0 010-3.406h-2.428a1.704 1.704 0 010-3.408h19.713a1.704 1.704 0 010 3.408h2.433a1.703 1.703 0 010 3.406z" fill="#6c63ff" opacity=".1"/><path data-name="Path 7" d="M193.92 24.283l-188.955 4.6A75.356 75.356 0 00.443 48.392H190.61a80.829 80.829 0 002.746-12.437 58.932 58.932 0 00.564-11.672zM38.804 39.34h-3.408a1.704 1.704 0 110 3.408H15.683a1.704 1.704 0 010-3.408h3.408a1.703 1.703 0 110-3.406h-2.433a1.704 1.704 0 010-3.408h19.713a1.704 1.704 0 010 3.408h2.433a1.703 1.703 0 110 3.406z" fill="#6c63ff" opacity=".1"/><g data-name="Group 2" opacity=".1"><path data-name="Path 8" d="M140.992 87.298s4.987-12.291 14.3-16.85a20.087 20.087 0 009.12-8.856 33.8 33.8 0 002.287-5.742" fill="none" stroke="#535461" stroke-miterlimit="10" stroke-width="2"/><path data-name="Path 9" d="M172.545 52.942c-.971 1.22-5.995 3.006-5.995 3.006s.6-5.3 1.576-6.517a2.83 2.83 0 114.421 3.516z" fill="#6c63ff"/><path data-name="Path 10" d="M170.827 62.607c-1.478.5-6.664-.739-6.664-.739s3.387-4.117 4.865-4.614a2.83 2.83 0 111.8 5.353z" fill="#6c63ff"/><path data-name="Path 11" d="M161.478 74.033c-1.526-.318-5.38-4-5.38-4s5-1.844 6.529-1.528a2.83 2.83 0 01-1.15 5.53z" fill="#6c63ff"/><path data-name="Path 12" d="M152.459 81.084c-1.558-.053-5.979-3.035-5.979-3.035s4.619-2.663 6.177-2.608a2.829 2.829 0 11-.2 5.643z" fill="#6c63ff"/><path data-name="Path 13" d="M159.334 58.414c.2 1.547 3.576 5.671 3.576 5.671s2.225-4.846 2.025-6.391a2.83 2.83 0 00-5.6.72z" fill="#6c63ff"/><path data-name="Path 14" d="M148.89 66.795c.653 1.415 5.111 4.342 5.111 4.342s.67-5.288.018-6.7a2.829 2.829 0 00-5.128 2.363z" fill="#6c63ff"/><path data-name="Path 15" d="M139.857 76.337c.4 1.507 4.3 5.143 4.3 5.143s1.556-5.1 1.153-6.605a2.829 2.829 0 00-5.456 1.462z" fill="#6c63ff"/><path data-name="Path 16" d="M172.545 52.942c-.971 1.22-5.995 3.006-5.995 3.006s.6-5.3 1.576-6.517a2.83 2.83 0 114.421 3.516z" opacity=".25"/><path data-name="Path 17" d="M170.827 62.607c-1.478.5-6.664-.739-6.664-.739s3.387-4.117 4.865-4.614a2.83 2.83 0 111.8 5.353z" opacity=".25"/><path data-name="Path 18" d="M161.478 74.033c-1.526-.318-5.38-4-5.38-4s5-1.844 6.529-1.528a2.83 2.83 0 01-1.15 5.53z" opacity=".25"/><path data-name="Path 19" d="M152.459 81.084c-1.558-.053-5.979-3.035-5.979-3.035s4.619-2.663 6.177-2.608a2.829 2.829 0 11-.2 5.643z" opacity=".25"/><path data-name="Path 20" d="M159.334 58.414c.2 1.547 3.576 5.671 3.576 5.671s2.225-4.846 2.025-6.391a2.83 2.83 0 00-5.6.72z" opacity=".25"/><path data-name="Path 21" d="M148.89 66.795c.653 1.415 5.111 4.342 5.111 4.342s.67-5.288.018-6.7a2.829 2.829 0 00-5.128 2.363z" opacity=".25"/><path data-name="Path 22" d="M139.857 76.337c.4 1.507 4.3 5.143 4.3 5.143s1.556-5.1 1.153-6.605a2.829 2.829 0 00-5.456 1.462z" opacity=".25"/></g><g data-name="Group 3" opacity=".1"><path data-name="Path 23" d="M133.052 67.636s.63-13.249 7.9-20.64a20.1 20.1 0 005.668-11.378 33.824 33.824 0 00.248-6.181" fill="none" stroke="#535461" stroke-miterlimit="10" stroke-width="2"/><path data-name="Path 24" d="M151.431 24.75c-.511 1.475-4.66 4.821-4.66 4.821s-1.185-5.2-.676-6.671a2.83 2.83 0 015.335 1.85z" fill="#6c63ff"/><path data-name="Path 25" d="M153.011 34.44c-1.238.958-6.533 1.514-6.533 1.514s1.83-5.008 3.059-5.967a2.83 2.83 0 013.473 4.453z" fill="#6c63ff"/><path data-name="Path 26" d="M147.981 48.323c-1.546.207-6.4-1.991-6.4-1.991s4.108-3.4 5.659-3.606a2.83 2.83 0 01.75 5.6z" fill="#6c63ff"/><path data-name="Path 27" d="M141.809 57.963c-1.487.467-6.646-.884-6.646-.884s3.473-4.043 4.962-4.508a2.83 2.83 0 111.684 5.388z" fill="#6c63ff"/><path data-name="Path 28" d="M140.778 34.296c.707 1.394 5.256 4.165 5.256 4.165s.49-5.305-.21-6.7a2.83 2.83 0 00-5.045 2.536z" fill="#6c63ff"/><path data-name="Path 29" d="M133.704 45.667c1.086 1.119 6.26 2.4 6.26 2.4s-1.119-5.213-2.205-6.333a2.83 2.83 0 00-4.055 3.931z" fill="#6c63ff"/><path data-name="Path 30" d="M128.346 57.66c.884 1.287 5.765 3.425 5.765 3.425s-.225-5.327-1.1-6.614a2.83 2.83 0 00-4.662 3.183z" fill="#6c63ff"/></g><path data-name="Path 31" d="M76.214 15.124s-4.214-.253-3.714 2.7a.72.72 0 00.375.759s0-.219.432-.145a1.884 1.884 0 00.458.023.957.957 0 00.561-.232 3.343 3.343 0 001.645-2.426s.341-.423.327-.531l-.707.3a1.277 1.277 0 01.051.939s-.023-.921-.159-.9c-.028 0-.37.177-.37.177a2.1 2.1 0 01.1 1.544s.12-1.1-.233-1.478l-.5.292a2.213 2.213 0 01.157 1.676 3.155 3.155 0 00-.262-1.606l-.454.354a2.151 2.151 0 01.177 1.535s-.035-1.346-.278-1.447a2.77 2.77 0 00-.456.493s.313.661.118 1.01c0 0-.118-.9-.218-.9a2.971 2.971 0 00-.437 1 2.161 2.161 0 01.341-1.061 1.2 1.2 0 00-.607.313s.062-.419.707-.456a2.752 2.752 0 01.414-.477 2.561 2.561 0 00-1.024.118 1.15 1.15 0 011.141-.218l.449-.364a3.733 3.733 0 00-1.2.011 1.441 1.441 0 011.318-.094l.488-.292a4.377 4.377 0 00-1.144-.1 1.762 1.762 0 011.287.019l.354-.156s-.531-.1-.679-.12-.161-.058-.161-.058a1.818 1.818 0 01.985.11 4.123 4.123 0 00.718-.312z" fill="#6c63ff" opacity=".1"/><path data-name="Path 32" d="M65.147 29.497s-1.44 3.97 1.533 4.333a.722.722 0 00.835-.145s-.209-.069-.016-.454a1.892 1.892 0 00.145-.433.957.957 0 00-.062-.6 3.34 3.34 0 00-1.859-2.265s-.309-.447-.417-.465l.09.768a1.28 1.28 0 01.916.217s-.884-.239-.909-.1c0 .028.065.4.065.4a2.109 2.109 0 011.51.34s-1.022-.426-1.484-.2l.138.564a2.206 2.206 0 011.652.325 3.149 3.149 0 00-1.615-.205l.21.531a2.194 2.194 0 011.523.264s-1.3-.354-1.466-.143a2.73 2.73 0 00.345.578s.722-.113 1 .177c0 0-.893-.14-.925-.046a3.031 3.031 0 00.835.707 2.152 2.152 0 01-.916-.626 1.192 1.192 0 00.129.661s-.384-.177-.237-.8a2.847 2.847 0 01-.341-.531 2.607 2.607 0 00-.177 1.017 1.152 1.152 0 01.117-1.157l-.223-.531a3.579 3.579 0 00-.329 1.149 1.454 1.454 0 01.283-1.289l-.141-.55a4.452 4.452 0 00-.419 1.061 1.754 1.754 0 01.386-1.227l-.051-.38s-.248.474-.308.617-.1.138-.1.138a1.831 1.831 0 01.385-.914 4.283 4.283 0 00-.102-.786z" fill="#6c63ff" opacity=".1"/><path data-name="Path 33" d="M93.101 26.152s-1.441 3.968 1.533 4.331a.72.72 0 00.833-.143s-.207-.069-.016-.456a1.9 1.9 0 00.152-.433.939.939 0 00-.064-.6 3.345 3.345 0 00-1.859-2.267s-.308-.447-.416-.465l.089.769a1.273 1.273 0 01.916.216s-.884-.239-.907-.1c0 .027.065.4.065.4a2.094 2.094 0 011.509.34s-1.02-.428-1.484-.2l.138.562a2.211 2.211 0 011.654.325 3.134 3.134 0 00-1.615-.2l.21.531a2.194 2.194 0 011.523.263s-1.3-.354-1.466-.145a2.783 2.783 0 00.343.578s.723-.113 1 .177c0 0-.895-.14-.925-.048a3.031 3.031 0 00.835.707 2.165 2.165 0 01-.918-.628 1.188 1.188 0 00.129.67s-.385-.177-.239-.8a2.792 2.792 0 01-.34-.531 2.564 2.564 0 00-.177 1.017 1.151 1.151 0 01.118-1.157l-.225-.531a3.545 3.545 0 00-.327 1.151 1.458 1.458 0 01.283-1.291l-.141-.55a4.406 4.406 0 00-.419 1.061 1.747 1.747 0 01.384-1.227l-.051-.378s-.248.474-.306.615-.1.14-.1.14a1.811 1.811 0 01.385-.914 4.472 4.472 0 00-.104-.789z" fill="#6c63ff" opacity=".1"/><path data-name="Path 34" d="M47.429 21.18s-1.441 3.97 1.533 4.331a.716.716 0 00.833-.143s-.207-.069-.016-.454a1.992 1.992 0 00.152-.433.957.957 0 00-.064-.6 3.344 3.344 0 00-1.859-2.267s-.308-.446-.416-.463l.088.768a1.28 1.28 0 01.916.217s-.884-.241-.907-.1c0 .028.065.4.065.4a2.1 2.1 0 011.508.34s-1.022-.428-1.484-.2l.138.564a2.206 2.206 0 011.652.325 3.141 3.141 0 00-1.613-.205l.21.531a2.194 2.194 0 011.523.263s-1.3-.354-1.466-.145a2.788 2.788 0 00.343.58s.723-.115 1 .177c0 0-.893-.14-.925-.046a3.081 3.081 0 00.836.707 2.147 2.147 0 01-.918-.628 1.189 1.189 0 00.129.67s-.386-.177-.239-.8a2.762 2.762 0 01-.34-.531 2.573 2.573 0 00-.177 1.017 1.152 1.152 0 01.117-1.157l-.223-.531a3.594 3.594 0 00-.329 1.151 1.454 1.454 0 01.283-1.289l-.14-.552a4.407 4.407 0 00-.419 1.061 1.747 1.747 0 01.384-1.227l-.051-.378s-.248.474-.306.617-.1.138-.1.138a1.818 1.818 0 01.384-.914 3.961 3.961 0 00-.102-.794z" fill="#6c63ff" opacity=".1"/><path data-name="Path 35" d="M91.704 48.109s1.112 4.067 3.751 2.653a.72.72 0 00.6-.6s-.209.062-.276-.364a1.915 1.915 0 00-.126-.44.96.96 0 00-.4-.456 3.353 3.353 0 00-2.829-.78s-.509-.187-.608-.14l.516.577a1.285 1.285 0 01.872-.354s-.865.317-.8.439c.012.025.286.294.286.294a2.09 2.09 0 011.429-.592s-1.081.241-1.326.7l.438.382a2.209 2.209 0 011.537-.688s-1.121.29-1.436.764l.481.317a2.145 2.145 0 011.4-.663s-1.261.467-1.28.727a2.791 2.791 0 00.615.276s.531-.509.916-.437c0 0-.81.4-.782.5a3.141 3.141 0 001.088.092 2.148 2.148 0 01-1.111.016 1.192 1.192 0 00.49.474s-.417.076-.658-.52a2.756 2.756 0 01-.585-.239 2.58 2.58 0 00.442.932 1.148 1.148 0 01-.571-1.012l-.486-.3a3.678 3.678 0 00.394 1.13 1.455 1.455 0 01-.513-1.217l-.433-.368a4.465 4.465 0 00.274 1.114 1.765 1.765 0 01-.393-1.226l-.262-.279s.071.531.106.681 0 .177 0 .177a1.819 1.819 0 01-.214-.969 4.366 4.366 0 00-.546-.601z" fill="#6c63ff" opacity=".1"/><path data-name="Path 36" d="M325.465 223.685a9.68 9.68 0 001.271 1.224l3.445 2.936a6.054 6.054 0 002.016 1.307 3.155 3.155 0 002.752-.423l-.058-.019.058-.039a5.2 5.2 0 01-1.657-.759 1.862 1.862 0 01-.729-1.238v-.074a1.3 1.3 0 01.019-.2 4.384 4.384 0 002.074-.73l-.06-.021.06-.037a6.133 6.133 0 01-3.684-4.135 20.953 20.953 0 01-.64-5.673 13.933 13.933 0 00-1.027-5.6 9.187 9.187 0 01-.858-1.963 3.051 3.051 0 01-.058-.631 8.427 8.427 0 01.393-2.03 42.325 42.325 0 00.969-4.511 10.586 10.586 0 00.157-1.636 4.2 4.2 0 00-.253-1.572c-.81-2.1-3.625-3.1-4.055-5.305a4.649 4.649 0 01-.064-.9v-.5c0-.164 0-.354-.014-.516a8.511 8.511 0 00-2.012-4.165 11.458 11.458 0 00-4.016-3.9 9.552 9.552 0 00-4.706-.7 12.242 12.242 0 00-2.331-1.583 10.511 10.511 0 00-3.822-1.489c-1.707-.187-3.394.467-5.105.577-2.327.15-4.612-.707-6.939-.884s-5.007.607-6.046 2.95a5.625 5.625 0 00-.439 1.791 6.932 6.932 0 00-.023.354v.012a11.127 11.127 0 00.041 1.434v.055a2.616 2.616 0 00.028.286.266.266 0 00.009.083 2.26 2.26 0 00.03.265l.011.083.044.334a3.556 3.556 0 00.147.676 1.268 1.268 0 00.187.354 1.5 1.5 0 001.026.477l.309.044a9.032 9.032 0 01-.1.193 10.994 10.994 0 00-1.061 4.734 11.19 11.19 0 009.5 11.014l.324.4a54.9 54.9 0 015.659 8.195c-1.369 1.7-2.971 4.713-3.427 9.767l-.677 1.581a11.275 11.275 0 00-1.42 7.73 88.331 88.331 0 00-1.172 4.884c-2.354-.522-10.388-1.813-12.287-3.066l-5.571-2.624s-7.251-5.065-11.152-3.374a31.3 31.3 0 00-4.709-4.476 65.649 65.649 0 01-5.8-6.117l-6.478-8.6a4.558 4.558 0 00-.4-2.212c-.764-1.022-4.808-3.291-5.617-2.8s-1.484-1.061-1.484-1.061l-.062-.034a48.908 48.908 0 00-1.183-.654 15.721 15.721 0 01.053-2.152c.012-.12.028-.24.046-.354a9.859 9.859 0 009.224-7.523c.028-.111.048-.226.071-.34a1.738 1.738 0 001.632-.474 2.61 2.61 0 00.41-2.35 21.975 21.975 0 01-.619-2.4c-.111-1.123.285-2.3-.08-3.36a3.735 3.735 0 00-1.972-1.993c-.859-.43-1.8-.681-2.679-1.072-.838-.371-1.618-.87-2.488-1.164a10.276 10.276 0 00-3.537-.366 8.934 8.934 0 00-2.317-.681 3.3 3.3 0 00-2.531.66c-.531.47-.962 1.226-1.682 1.25a2.172 2.172 0 01-.987-.313 2.878 2.878 0 00-2.83-.1 2.92 2.92 0 00-1 2.062 6.7 6.7 0 01-.506 2.287 9.928 9.928 0 01-.875 1.165 5.008 5.008 0 00-.978 3.441v.035c-.042-.177-.083-.341-.113-.515a2.888 2.888 0 00.018.391 10.061 10.061 0 00.394 1.788l.732 2.564a15.066 15.066 0 001.459 3.781 6.227 6.227 0 00.992 1.247 4.582 4.582 0 002.223 1.289 2.849 2.849 0 00.909.055.585.585 0 01-.016.11c-.065-.012-.133-.027-.195-.035a1.889 1.889 0 00-.868.023 3.4 3.4 0 00-1.945 2.6c-.028.152-.037.244-.037.244s.023.088.05.239l-.012.051c-.028.15-.037.244-.037.244s.023.088.05.242l-.364.009-6.092.8a13.942 13.942 0 00-3.425.051 1.414 1.414 0 00-.177.051c-.884.306-4.936 3.1-8.572 5.675a1.33 1.33 0 00-.011-.207l-1.035.736v.214c-.258.177-.515.364-.762.543-1.112.8-2.122 1.514-2.874 2.064-.916.658-1.484 1.073-1.484 1.073a1.073 1.073 0 00-.559.628c-.286.663-.386 2 .649 4.621a36.2 36.2 0 012.246 7.829 5.626 5.626 0 00-1.459.354 2.641 2.641 0 00-1.583 1.415 2.435 2.435 0 00-.012 1.574c.852 3.024 14.963 20.2 14.963 20.2l.177.016a12.4 12.4 0 002.175 0 2.477 2.477 0 001.56-.559 5.864 5.864 0 007.723 1.28c-.032 3.643-.124 6.315.454 7.661.9 2.09.9 6.849.9 6.849l.856.03c-.046.177-.1.354-.152.531-.394 1.3-.976 2.879-1.592 3.256-1.036.637-.545 11.58-.5 12.524v.057l-.06 4.421v.354a4.286 4.286 0 01-.345-.545 7.115 7.115 0 00-1.7 4.952 32.25 32.25 0 00.03 3.473s6.72-.26 7.981.2 11.806-.4 11.806-.4a1.55 1.55 0 00-.734-1.795 10.239 10.239 0 004.9-1.3c2.52-1.82-5.084-3.238-5.615-3.526s-3.158-2.607-4.244-3.475a2.207 2.207 0 00-1.121-.417l.136-3.963c1.618-1.823 3.371-11.877 3.371-11.877a4.161 4.161 0 00.925-2.349 1.077 1.077 0 00.737-.989c1.852.062 4.181.048 4.628-.4.764-.757.674-3.337.674-3.337l-1.079-27.312-.071-.1a13.618 13.618 0 00.011-3.77c2.423.691 4.308 1.162 4.308 1.162s3.647.672 6.206 1.238a4.182 4.182 0 00-.927 1.556c-2.3 6.543 10.74 6.273 10.74 6.273l6.156 2.847 14.491 4.736c-4.656-1.374-9.976-2.99-13.6-4.1a9.507 9.507 0 00-1.086-.264 9.233 9.233 0 00-8.886 3.277l-.074.1a3.891 3.891 0 00-.092 4.617c.554.783 1.294 1.825 2.163 3.036-1.837.555-4.877 2.1-3.029 6.082 2.561 5.516 9.435 8.665 9.435 8.665s4.494 1.291 5.659 2.715a20.9 20.9 0 003.245 2.354 8.4 8.4 0 002.386 2.02c1.97.649 5.806 3.763 8.5 6.1l-.4 5.581-.027.336-.166-.141a7 7 0 01-4.653 3.305 2.962 2.962 0 00-1.731 1.128l-.012.016-.1.149-.078-.058c-.707 1-1.036 2.446 1.634 2.845a30.705 30.705 0 008.842-.267l4.166-3.852a4.092 4.092 0 001.592.826c3.114.707 11.861 4.092 11.861 4.092 0-.95 7.73-13.166 7.73-13.166 10.434-19.75-.913-34.51-2.166-36.046l-.111-.134-.1-1.641-.021-.377s5.631-2.49 3.473-3.675-3.36-6.881-5.392-9.253c-1.592-1.85-1.5-6.144-1.668-9.8a5.891 5.891 0 001.144 2.476c.012.016.027.028.039.044l-.15-.131a1.816 1.816 0 00.127.144zm-69.382-1.517a24.912 24.912 0 002.83 2.41c-1-.49-1.786-.9-2.389-1.238-.142-.392-.29-.785-.441-1.172zm-21.449-18.507a2.923 2.923 0 01-.911 1.328l-.354-1.526c.464.074.895.143 1.265.198zm70.681 41.932c.14-.3.285-.6.431-.884a3.316 3.316 0 001.572-1.093 22.448 22.448 0 01.682 3.264v.08a4.981 4.981 0 01-.2 1.314c-.163.516-.46 1-1 1.061a19.73 19.73 0 01-2.983-.695c-.479-.131-1.006-.278-1.569-.437.885-.059 2.112-.556 3.067-2.61zm13.838-37.314a2.916 2.916 0 00-1.864-1.07c-.154-.1-.393-.265-.7-.486-1.485-1.088-4.451-3.537-5.811-6.665a7.487 7.487 0 001.107-.4 8.006 8.006 0 001.563-.946c.163-.127.322-.26.474-.4a8.251 8.251 0 001.061-1.158c.126-.177.248-.345.354-.531a8.15 8.15 0 00.47-.845 10.534 10.534 0 00.741-2.122c.069-.294.129-.592.177-.893s.094-.6.127-.907a25.616 25.616 0 00.126-3.231v-.212a15.81 15.81 0 00-.354-3.252c.08.03.159.06.235.1a2.374 2.374 0 01.364.221c-.028-.041-.06-.081-.09-.122a4.594 4.594 0 011.238 1.367 19.518 19.518 0 012.094 16.692 9.973 9.973 0 00-.637 2.311c-.249 2.849 2.476 5.022 3.489 7.7a13.956 13.956 0 01.654 4.3c-.764-3.726-3.556-7.394-4.817-9.436z" transform="translate(-181.258 -152.632)" fill="url(#a)"/><path data-name="Path 37" d="M70.296 111.983s-.133 2.211-.973 2.918c0 0-1.724 9.992-3.316 11.8l-.265 1.017-6.632-.752 1.326-8.842 1.238-8.135z" fill="#ffc1c8"/><path data-name="Path 38" d="M70.296 111.983s-.133 2.211-.973 2.918c0 0-1.724 9.992-3.316 11.8l-.265 1.017-6.632-.752 1.326-8.842 1.238-8.135z" opacity=".03"/><path data-name="Path 39" d="M63.15 126.828l2.858-.126-.152 4.5-2.188 1.466-3.94-.863 1.438-6.013z" fill="#ff748f"/><path data-name="Path 40" d="M63.15 126.828l2.858-.126-.152 4.5-2.188 1.466-3.94-.863 1.438-6.013z" opacity=".03"/><path data-name="Path 41" d="M63.669 130.856s2.244-.661 3.309.2 3.654 3.164 4.172 3.452 7.99 1.7 5.523 3.509-8.8 1.294-8.8 1.294-4.143-1.21-4.258-1.266-2.653-1.294-2.732-1.381.718-5.836.718-5.836z" fill="#5d618c"/><path data-name="Path 42" d="M63.669 130.856s2.244-.661 3.309.2 3.654 3.164 4.172 3.452 7.99 1.7 5.523 3.509-8.8 1.294-8.8 1.294-4.143-1.21-4.258-1.266-2.653-1.294-2.732-1.381.718-5.836.718-5.836z" opacity=".03"/><path data-name="Path 43" d="M57.171 71.086l-.133 8.22-.3 17.534-.177.154c-5.261 4.554-8.975-.265-8.975-.265a2.413 2.413 0 01-1.535.555 12 12 0 01-2.14 0l-.177-.016S29.848 80.19 29.008 77.184a2.451 2.451 0 01.012-1.563 2.618 2.618 0 011.558-1.4 5.5 5.5 0 011.436-.354 36.336 36.336 0 00-2.211-7.781c-1.019-2.608-.92-3.933-.638-4.6a1.064 1.064 0 01.55-.624s.559-.412 1.459-1.061c.748-.546 1.733-1.261 2.83-2.051l1.017-.729c3.751-2.692 8.271-5.861 9.2-6.19a1.353 1.353 0 01.177-.051c1.9-.458 8.266.493 8.266.493z" fill="#6c63ff"/><path data-name="Path 44" d="M57.166 71.087l-.133 8.22c-6.29-1.855-12.139-14.148-12.91-15.117-.66-.842.018-10.216.267-13.4 1.9-.458 8.266.493 8.266.493z" fill="none"/><path data-name="Path 45" d="M57.166 71.087l-.133 8.22c-6.29-1.855-12.139-14.148-12.91-15.117-.66-.842.018-10.216.267-13.4 1.9-.458 8.266.493 8.266.493z" opacity=".1"/><path data-name="Path 46" d="M129.363 55.079s-4.907 2.52-5.526 12.423a47.833 47.833 0 01-1.238 5.924c-.442.884-2.564 9.24-2.3 10.257 0 0-.442 1.017-2.078.575s-10.478-1.813-12.468-3.139l-5.482-2.608s-10.7-7.56-12.954-1.061 10.566 6.237 10.566 6.237l6.057 2.83 18.348 6.053s2.432 1.105 4.067-2.432a41.5 41.5 0 013.714-6.366s3.714-10.434 3.669-12.2 3.979-5.969 3.979-5.969.8-11.141-5.747-10.92z" fill="#ffc1c7"/><path data-name="Path 47" d="M129.363 55.079s-4.907 2.52-5.526 12.423a47.833 47.833 0 01-1.238 5.924c-.442.884-2.564 9.24-2.3 10.257 0 0-.442 1.017-2.078.575s-10.478-1.813-12.468-3.139l-5.482-2.608s-10.7-7.56-12.954-1.061 10.566 6.237 10.566 6.237l6.057 2.83 18.348 6.053s2.432 1.105 4.067-2.432a41.5 41.5 0 013.714-6.366s3.714-10.434 3.669-12.2 3.979-5.969 3.979-5.969.8-11.141-5.747-10.92z" opacity=".03"/><path data-name="Path 48" d="M77.459 63.68a8.54 8.54 0 001.5.948 64.815 64.815 0 005.7 6.078c1.636 1.238 6.985 5.969 5.9 7.76s-2.3 1.392-2.3 1.392l-9.573-6.632s-3.36-2.409-4.044-3.558a26.59 26.59 0 01-1.516-3.556z" fill="#ffc1c8"/><path data-name="Path 49" d="M77.459 63.68a8.54 8.54 0 001.5.948 64.815 64.815 0 005.7 6.078c1.636 1.238 6.985 5.969 5.9 7.76s-2.3 1.392-2.3 1.392l-9.573-6.632s-3.36-2.409-4.044-3.558a26.59 26.59 0 01-1.516-3.556z" opacity=".03"/><path data-name="Path 50" d="M72.088 55.413l6.874 9.217-6.19 2.41-2.564-7.716z" fill="#dce6f2"/><path data-name="Path 51" d="M72.088 55.413l6.874 9.217-6.19 2.41-2.564-7.716z" opacity=".03"/><path data-name="Path 52" d="M73.878 78.912l1.239 1.813 1.061 27.146s.088 2.564-.663 3.316-6.9.265-6.9.265.221-27.676.31-28.207 4.953-4.333 4.953-4.333z" fill="#575988"/><path data-name="Path 53" d="M73.878 78.912l1.239 1.813 1.061 27.146s.088 2.564-.663 3.316-6.9.265-6.9.265.221-27.676.31-28.207 4.953-4.333 4.953-4.333z" opacity=".1"/><path data-name="Path 54" d="M65.6 113.222a22.436 22.436 0 01-1.415 2.872s-1.15 6.559-1.639 7.164c-.354.442-.516 3.742-.575 5.463-.021.622-.03 1.038-.03 1.038l-6.759 3.222-.03-4.258v-.057c-.042-.939-.531-11.815.493-12.448.6-.373 1.174-1.945 1.562-3.234.3-1 .481-1.829.481-1.829s7.509-.488 8.135.317c.23.29.07.987-.223 1.75z" fill="#ffc1c8"/><path data-name="Path 55" d="M65.6 113.227a651.554 651.554 0 01-8.4-.248c.3-1 .481-1.829.481-1.829s7.509-.488 8.135.317c.236.297.077.997-.216 1.76z" opacity=".1"/><path data-name="Path 56" d="M56.724 72.988s-2.078 11.053-1.68 18.171-.31 12.376.575 14.457.884 6.809.884 6.809 12.025.442 13.263.265 1.194-1.105 1.194-1.105-.84-7.343-.044-9.642.663-9.329.663-9.329l3.36-11.318s1.017-5.084-1.105-7.162-17.11-1.146-17.11-1.146z" fill="#575988"/><path data-name="Path 57" d="M128.08 131.391l-.531.778-3.281 4.881-2.785.84-2.078-2.034.1-1.342.518-6.969s-12.857-7.564-14.006-8.978-5.571-2.7-5.571-2.7-6.764-3.139-9.284-8.621 4.2-6.322 4.2-6.322l25.245 24.143z" fill="#ffc1c7"/><path data-name="Path 58" d="M127.559 132.167l-3.281 4.881-2.785.84-2.078-2.034.1-1.342 2.287 1.961 4.289-5z" opacity=".1"/><path data-name="Path 59" d="M131.176 134.22l-8 7.472a29.988 29.988 0 01-8.71.265c-2.628-.4-2.122-1.837-1.431-2.83l.012-.018a2.907 2.907 0 011.7-1.121 6.89 6.89 0 004.577-3.284l2.479 2.125 4.289-5 3.171 1.489z" fill="#575988"/><path data-name="Path 60" d="M131.176 134.306l-8 7.475a29.988 29.988 0 01-8.71.265c-2.628-.4-2.3-1.837-1.608-2.83a5.481 5.481 0 002.757 1.148 44.026 44.026 0 005.659 0l7.99-6.955z" fill="#fff"/><path data-name="Path 61" d="M65.11 44.75c-.651.325-.95 1.33-1.07 2.476a21.156 21.156 0 00.126 4.311s-8.842-2.417-7.9-2.89c.543-.271.831-2.241.978-3.862.11-1.2.141-2.209.141-2.209s9.493 1.291 7.725 2.174z" fill="#ffc1c8"/><path data-name="Path 62" d="M135.494 55.48s-10.729 10.138-10.375 7.192a3.583 3.583 0 00-.371-1.648c-.992-2.391-3.735-6.1-5.88-8.817-1.574-1.991-2.83-3.447-2.83-3.447s13.325-11.2 12.264-4.833a7.639 7.639 0 00.582 4.276c1.328 3.127 4.271 5.587 5.74 6.672.531.391.87.605.87.605z" fill="#ffc1c7"/><path data-name="Path 63" d="M126.829 45.871a39.49 39.49 0 01-1.119 1.3c-2.016 2.1-2.285 5.128-5.424 5.128a11.019 11.019 0 01-1.415-.09c-1.574-1.991-2.83-3.447-2.83-3.447s13.322-11.2 12.261-4.833c-.251 1.508-2.031.619-1.473 1.942z" opacity=".1"/><path data-name="Path 64" d="M131.367 40.861a11.039 11.039 0 11-3.233-7.848 11.083 11.083 0 013.233 7.848z" fill="#ffc1c7"/><path data-name="Path 65" d="M135.494 55.48s-10.729 10.139-10.375 7.192a3.584 3.584 0 00-.371-1.648l1.551-3.657a10.492 10.492 0 016.863-2.6 9.984 9.984 0 011.374.094l.088.014c.53.391.87.605.87.605z" opacity=".1"/><path data-name="Path 66" d="M148.108 129.755s-7.6 12.142-7.6 13.087c0 0-8.607-3.36-11.672-4.067s-5.954-7.132-5.954-7.132-8.135-7.664-11.318-8.726c-2.7-.9-15.677-19.205-19.543-24.728a3.891 3.891 0 01.092-4.589l.073-.094a9.035 9.035 0 018.743-3.257 9.127 9.127 0 011.061.262c5.567 1.721 15.209 4.678 20.072 6.013a20.437 20.437 0 002.936.691c.531-.055.822-.531.983-1.052a5 5 0 00.2-1.305v-.08a22.441 22.441 0 00-.7-3.325c-.568-1.945-1.551-4.228-3.183-5.319-1.355-.9-2.432-2.9-3-5.213-.759-3.128-.584-6.851 1.109-9.288l1.636-3.859 2.736-6.455 1.524-3.6a10.493 10.493 0 016.863-2.6 9.978 9.978 0 011.374.094 3.562 3.562 0 012.609 1.208c1.3 2.122 4.244 6.013 4.833 9.9s-.117 10.257 1.887 12.616 3.183 8.016 5.305 9.2-3.418 3.654-3.418 3.654l.021.373.1 1.632s.039.044.11.133c1.225 1.529 12.378 16.198 2.121 35.826z" fill="#ff6584"/><path data-name="Path 67" d="M145.986 93.929c-2.324.486-7.406 1.546-9.673 2.011l-.4.081a7.799 7.799 0 01-.442.074 74.085 74.085 0 01-9.481.067 5 5 0 00.2-1.305v-.08a74.71 74.71 0 009.293-1.155c.285-.058.566-.12.84-.177.4-.092.782-.189 1.149-.292a30.935 30.935 0 018.312-.983l.1 1.632s.022.039.102.127z" fill="#575988"/><path data-name="Path 68" d="M136.304 93.44v2.5l-.4.081a8.813 8.813 0 01-.442.074V93.63c.287-.064.568-.126.842-.19z" fill="#ff6584"/><path data-name="Path 69" d="M138.47 98.229s-4.731 10.832-7.6 11.893-10.036 4.819-10.036 4.819a6.171 6.171 0 008.4-.354c4.285-3.979 10.474-14.59 9.236-16.358z" opacity=".1"/><path data-name="Path 70" d="M143.643 96.773s.442 4.112-.177 4.863.177-4.863.177-4.863z" opacity=".1"/><path data-name="Path 71" d="M146.207 99.467s2.387 25.024-9.461 25.156c0 .004 11.097-11.008 9.461-25.156z" opacity=".1"/><path data-name="Path 72" d="M149.214 105.479s3.4 13.131-1.061 14.634a33.306 33.306 0 001.061-14.634z" opacity=".1"/><path data-name="Path 73" d="M128.037 102.119c-.221 0-9.2 1.547-7.251 2.785s7.251-2.785 7.251-2.785z" opacity=".1"/><path data-name="Path 74" d="M134.226 84.394s7.339 6.5 5.924 7.206" opacity=".1"/><path data-name="Path 75" d="M133.607 86.472s4.244 5.217 3.758 5.526" opacity=".1"/><path data-name="Path 76" d="M142.67 85.673s1.945 2.432 1.636 2.962" opacity=".1"/><path data-name="Path 77" d="M144.616 84.394s2.785 2.163 2.166 3.006" opacity=".1"/><path data-name="Path 78" d="M129.142 58.044s9.063.707 8.665 8a10.19 10.19 0 01-7.162 9.152l-8.8-2.52s3.937-14.146 7.297-14.632z" fill="#ffc1c7"/><path data-name="Path 79" d="M101.992 90.51c5.567 1.721 15.209 4.678 20.072 6.013a2.571 2.571 0 01-2.074.115l-18.348-6.053-.718-.336a9.122 9.122 0 011.068.261z" opacity=".1"/><path data-name="Path 80" d="M133.041 72.479c-.861 1.15-1.62 2.387-1.592 3.162a18.527 18.527 0 01-.845 3.659 61.168 61.168 0 01-5.129 12.153c-.568-1.945-1.551-4.228-3.183-5.319-1.355-.9-2.432-2.9-3-5.213a30.67 30.67 0 011.006-3.422 47.844 47.844 0 001.238-5.924 26.475 26.475 0 01.5-3.8 16.016 16.016 0 012.736-6.455 7.639 7.639 0 012.3-2.168l2.608-.4c3.006-.1 4.456 2.186 5.155 4.692a10.484 10.484 0 01-1.794 9.035z" opacity=".1"/><path data-name="Path 81" d="M126.534 58.439s-4.907 2.52-5.526 12.423a47.846 47.846 0 01-1.238 5.924c-.442.884-2.564 9.24-2.3 10.257 0 0-.442 1.017-2.078.575s-10.478-1.813-12.468-3.139l-5.482-2.608s-10.7-7.56-12.954-1.061 10.566 6.237 10.566 6.237l6.057 2.829 18.348 6.053s2.432 1.105 4.067-2.432a36.83 36.83 0 011.271-2.488 61.477 61.477 0 005.272-12.411 17.881 17.881 0 00.845-3.659 6.813 6.813 0 011.592-3.162 10.424 10.424 0 001.786-9.037c-.7-2.506-2.156-4.792-5.155-4.69z" fill="#ffc1c7"/><path data-name="Path 82" d="M65.11 44.751c-.651.325-.95 1.33-1.07 2.476h-.345a9.673 9.673 0 01-6.45-2.448c.11-1.2.141-2.209.141-2.209s9.493 1.296 7.724 2.181z" opacity=".1"/><path data-name="Path 83" d="M73.422 37.146a9.726 9.726 0 11-9.723-9.726 9.726 9.726 0 019.723 9.726z" fill="#ffc1c8"/><path data-name="Path 84" d="M76.707 75.239s-5.084 2.034-6.676 2.741-10.7-.928-10.7-.928-4.731-2.387-4.333-4.775-3.8-10.209-3.8-10.209-.133-6.941 1.724-8.268 1.149-4.112 1.149-4.112.009-.092.037-.242a3.34 3.34 0 011.908-2.587 1.828 1.828 0 01.854-.023 22.176 22.176 0 015.286 2.09 70.695 70.695 0 013 1.613l.06.034s.663 1.547 1.459 1.061 4.775 1.768 5.526 2.785.221 5.792.088 6.985a18.687 18.687 0 001.724 6.761c.97 2.03 2.694 7.074 2.694 7.074z" opacity=".1"/><path data-name="Path 85" d="M76.707 74.708s-5.084 2.034-6.676 2.741-10.7-.928-10.7-.928-4.731-2.387-4.333-4.775-3.8-10.209-3.8-10.209-.133-6.941 1.724-8.267 1.149-4.112 1.149-4.112.009-.092.037-.242a3.34 3.34 0 011.908-2.587 1.828 1.828 0 01.854-.023 22.176 22.176 0 015.286 2.09 70.695 70.695 0 013 1.613l.06.034s.663 1.547 1.459 1.061 4.775 1.768 5.526 2.785.221 5.792.088 6.985a18.687 18.687 0 001.724 6.761c.97 2.029 2.694 7.073 2.694 7.073z" fill="#dce6f2"/><path data-name="Path 86" d="M60.246 67.917s-4.363 7.074-5.07 7.458l.265 2.476s6.22-1.3 6.6-3.036a46.3 46.3 0 00.177-6.985z" fill="#575988"/><path data-name="Path 87" d="M60.246 67.917s-4.363 7.074-5.07 7.458l.265 2.476s6.22-1.3 6.6-3.036a46.3 46.3 0 00.177-6.985z" opacity=".2"/><path data-name="Path 88" d="M66.385 58.906s.773 2.985 1.99 4-1.99-4-1.99-4z" opacity=".1"/><path data-name="Path 89" d="M58.802 66.775c.111.2 3.846 5.284 7.781 7.162s12.712 4.09 12.712 4.09 7.118 1.326 8.333 1.834 2.764-1.768-4.863-5.017-9.107-4.686-9.107-4.686-6.632-3.231-7.693-4.823-7.163 1.44-7.163 1.44z" fill="#ffc1c8"/><path data-name="Path 90" d="M61.587 91.509c.133-.088 3.316-3.493 3.714-2.034s-3.714 2.034-3.714 2.034z" opacity=".1"/><path data-name="Path 91" d="M63.444 84.789c-.044.133-.486 3.891-1.768 4.333" opacity=".1"/><path data-name="Path 92" d="M64.77 85.809s-1.149 4.023-2.608 4.285" opacity=".1"/><path data-name="Path 93" d="M58.934 97.875s1.945.044 2.211-1.194" opacity=".1"/><path data-name="Path 94" d="M61.587 105.925c.265.044 4.421 2.7 3.36 3.227s-3.36-3.227-3.36-3.227z" opacity=".1"/><path data-name="Path 95" d="M61.964 128.317v.409c-.021.622-.03 1.038-.03 1.038l-6.759 3.222-.03-4.258v-.345l2.706.087z" opacity=".1"/><path data-name="Path 96" d="M63.228 134.509l-5.638 2.158-2.531-1.5.027-2.048.058-4.4 2.706.087 4.113-.143v3.079z" fill="#ff748f"/><path data-name="Path 97" d="M63.222 134.51l-5.637 2.157-2.531-1.5.027-2.048a4.1 4.1 0 003.109 1.609 18.668 18.668 0 013.192-3.194.737.737 0 01.577-.078v.288z" opacity=".1"/><path data-name="Path 98" d="M58.195 135.085a4.065 4.065 0 01-3.452-2.158 7.11 7.11 0 00-1.669 4.92 31.92 31.92 0 00.03 3.452s6.616-.258 7.854.2 11.622-.4 11.622-.4.69-1.813-2.446-2.446-5.724-3.97-5.811-4.113-1.726-3.36-2.934-2.653a18.292 18.292 0 00-3.194 3.198z" fill="#5d618c"/><path data-name="Path 99" d="M64.293 26.402l-.66-.09.412-.011z" opacity=".1"/><path data-name="Path 100" d="M73.42 37.147a9.747 9.747 0 01-.26 2.241 1.557 1.557 0 01-.419-.177c-.189-.122-.378-.29-.6-.271a.717.717 0 00-.354.163c-1.047.766-1.825 2.025-3.1 2.269a2.044 2.044 0 00.05-1.157 2.393 2.393 0 01-2.1.672 1.01 1.01 0 00.03-.7 20.3 20.3 0 01-2.792 1.3c-.034-.177-.065-.34-.1-.509-1.355.661-1.249 2.906-2.6 3.567-.806.394-1.945.111-2.5.822a1.339 1.339 0 00-.06.087 9.726 9.726 0 1114.8-8.3z" opacity=".1"/><path data-name="Path 101" d="M64.293 26.046a9.558 9.558 0 00-2.525-.778 3.211 3.211 0 00-2.49.656c-.531.467-.946 1.217-1.653 1.238a2.128 2.128 0 01-.973-.311 2.82 2.82 0 00-2.787-.1 2.9 2.9 0 00-.98 2.051 6.561 6.561 0 01-.5 2.272 10.078 10.078 0 01-.861 1.158 5 5 0 00-.962 3.42 9.932 9.932 0 00.386 1.777l.722 2.548a15.051 15.051 0 001.436 3.758 5.093 5.093 0 003.077 2.439 2.058 2.058 0 002.186-.645c.113-.177.186-.366.31-.531.548-.707 1.7-.426 2.5-.821 1.355-.661 1.249-2.906 2.6-3.567l.1.508a20.577 20.577 0 002.791-1.294 1.02 1.02 0 01-.028.695 2.4 2.4 0 002.094-.672 2.044 2.044 0 01-.05 1.157c1.273-.246 2.051-1.5 3.1-2.271a.73.73 0 01.354-.161c.225-.019.412.149.6.269a1.694 1.694 0 002.094-.267 2.614 2.614 0 00.4-2.338 19.587 19.587 0 01-.607-2.387c-.111-1.116.278-2.281-.08-3.342a3.693 3.693 0 00-1.945-1.981c-.851-.428-1.768-.677-2.637-1.061-.824-.37-1.592-.865-2.448-1.157a11.089 11.089 0 00-3.891-.354" fill="#794f6a"/><path data-name="Path 102" d="M64.461 58.986s1.415-9.52-10.7-9.049l-6.1.812s5.82 1.047 7.221 1.2l.149.021c1.295.238 5.777-.057 9.43 7.016z" fill="#6c63ff"/><path data-name="Path 103" d="M56.724 96.947v-.11c4.968-4.29 0 .11 0 .11z" opacity=".1"/><path data-name="Path 104" d="M46.037 97.285a12 12 0 01-2.14 0l-14.882-21.66a2.618 2.618 0 011.558-1.4z" fill="#575988"/><path data-name="Path 105" d="M36.387 74.094l-.707.84s-5.365-8.913-6.519-13.44a1.064 1.064 0 01.55-.624s.559-.412 1.459-1.061a46.232 46.232 0 005.217 14.285z" fill="#575988"/><path data-name="Path 106" d="M40.322 71.348l-1.415.8c-3.862-4.52-4.191-12.114-4.156-15.14l1.019-.732c.138 3.97 4.552 15.072 4.552 15.072z" fill="#575988"/><path data-name="Path 107" d="M44.036 70.556c-.044.575-1.68 6.411.707 7.383s-.707-7.383-.707-7.383z" opacity=".1"/><path data-name="Path 108" d="M49.164 80.592c.088.309.884 10.39 2.608 9.594s.8-12.291.8-12.291z" opacity=".1"/><path data-name="Path 109" d="M131.367 40.86a11.039 11.039 0 01-3.091 7.675 6.459 6.459 0 01-2.458.042 2.448 2.448 0 01-1.149-.462 2.991 2.991 0 01-.745-1.077c-.645-1.388-.976-2.992-1.882-4.181s-2.743-1.71-3.616-.492c-.476.661-.555 1.678-1.19 2.136-.762.552-1.768-.1-2.361-.884-1.751-2.3-1.151-6.819-4.49-7.454l-.134-.023a11.083 11.083 0 0121.117 4.718z" opacity=".1"/><path data-name="Path 110" d="M110.561 36.001c-.541-.1-1.169-.09-1.531-.557a2.143 2.143 0 01-.327-1.02 8.745 8.745 0 01.288-4.669c1.024-2.329 3.659-3.107 5.949-2.934s4.538 1.027 6.828.884c1.684-.11 3.344-.76 5.022-.575a10.22 10.22 0 013.76 1.482 8.994 8.994 0 013.052 2.4c1.164 1.6 1.383 3.811 1.415 5.885a16 16 0 01-1.155 7.107 7.548 7.548 0 01-7.868 4.405 2.448 2.448 0 01-1.149-.462 3.006 3.006 0 01-.743-1.077c-.647-1.39-.978-2.992-1.883-4.182s-2.743-1.708-3.617-.49c-.476.66-.555 1.678-1.19 2.136-.762.55-1.768-.1-2.361-.884-1.751-2.299-1.151-6.816-4.49-7.449z" fill="#945b79"/><path data-name="Path 111" d="M137.473 30.855a11.364 11.364 0 013.953 3.88 8.493 8.493 0 011.981 4.14 16.541 16.541 0 00.074 1.9c.423 2.2 3.183 3.183 3.99 5.277a6.138 6.138 0 01.092 3.128 42.215 42.215 0 01-.953 4.479 5.964 5.964 0 00-.327 2.7 8.294 8.294 0 00.842 1.945 13.978 13.978 0 011.013 5.562 21.05 21.05 0 00.628 5.64 6.079 6.079 0 003.625 4.108 4.26 4.26 0 01-2.041.725 1.7 1.7 0 00.707 1.57 5.156 5.156 0 001.631.755 3.077 3.077 0 01-2.709.417 6.074 6.074 0 01-1.982-1.3l-3.39-2.916a9.572 9.572 0 01-1.25-1.217c-2.193-2.725-.884-6.855-2.108-10.128-1-2.662-3.678-4.823-3.433-7.654a9.988 9.988 0 01.626-2.3 19.571 19.571 0 00-2.06-16.592 3.927 3.927 0 00-1.482-1.516c-.982-.469-2.384-.267-2.941-1.2a4.666 4.666 0 01-.38-1.915 9.78 9.78 0 015.894.512z" fill="#945b79"/><path data-name="Path 112" d="M51.351 60.801a6.437 6.437 0 0111.237-3.247 14.122 14.122 0 012.492 3.848c1.768 4.465 1.9 4.863 1.9 4.863s-10.92 2.122-10.832 3.714l-4.951-7.913s.037-.495.154-1.265z" opacity=".1"/><path data-name="Path 113" d="M51.351 60.27a6.437 6.437 0 0111.237-3.247 14.122 14.122 0 012.492 3.848c1.768 4.465 1.9 4.863 1.9 4.863s-10.92 2.122-10.832 3.714l-4.951-7.913s.037-.495.154-1.265z" fill="#dce6f2"/><path data-name="Path 114" d="M54.425 53.291c.133.221 5.35 6.587 8.091 7.495s-8.091-7.495-8.091-7.495z" opacity=".1"/><path data-name="Path 115" d="M32.01 73.872s13.794 16.27 15.562 22.857" opacity=".1"/><path data-name="Path 116" d="M32.54 58.84s3.006 15.562 8.842 22.106S53.231 98.63 53.231 98.63" fill="none" stroke="#000" stroke-miterlimit="10" stroke-width="2" opacity=".1"/><g data-name="Group 4" opacity=".1"><path data-name="Path 117" d="M75.162 36.199a2.108 2.108 0 01-.5 1.415 1.694 1.694 0 01-2.094.267c-.189-.12-.377-.288-.6-.269a.73.73 0 00-.354.161c-1 .729-1.749 1.9-2.918 2.226a2.043 2.043 0 01-.092.928c1.273-.246 2.051-1.5 3.1-2.271a.73.73 0 01.354-.161c.225-.019.412.149.6.269a1.694 1.694 0 002.094-.267 2.611 2.611 0 00.41-2.298z"/><path data-name="Path 118" d="M74.456 32.881c.014.145.039.288.067.432a11.185 11.185 0 000-2.653c.004.722-.141 1.486-.067 2.221z"/><path data-name="Path 119" d="M68.566 38.88a2.4 2.4 0 01-2.094.672 1.02 1.02 0 00.028-.7 20.576 20.576 0 01-2.791 1.295l-.1-.508c-1.355.661-1.249 2.906-2.6 3.567-.806.394-1.945.11-2.5.821-.124.161-.2.354-.309.531a2.055 2.055 0 01-2.186.645 5.078 5.078 0 01-3.077-2.439 15.12 15.12 0 01-1.436-3.758l-.721-2.548c-.118-.424-.239-.849-.317-1.282a2.6 2.6 0 00.019.389 9.929 9.929 0 00.385 1.777l.722 2.548a15.051 15.051 0 001.436 3.758 5.093 5.093 0 003.077 2.439 2.058 2.058 0 002.186-.645c.113-.177.186-.366.31-.531.548-.707 1.7-.426 2.5-.821 1.355-.661 1.249-2.906 2.6-3.567l.1.508a20.576 20.576 0 002.785-1.295 1.021 1.021 0 01-.028.7 2.4 2.4 0 002.012-.6 2.043 2.043 0 000-.958z"/></g><path data-name="Path 120" d="M65.152 50.539c-.951.548-3.162 1.768-3.609 1.56-.477-.221-5.687-2.044-7.427-2.653a3.34 3.34 0 011.908-2.587 1.829 1.829 0 01.854-.023l5.284 2.09c1.48.752 2.709 1.45 2.99 1.613z" opacity=".1"/><path data-name="Path 121" d="M65.152 50.008c-.951.548-3.162 1.768-3.609 1.56-.477-.221-5.687-2.044-7.427-2.653a3.34 3.34 0 011.908-2.587 1.829 1.829 0 01.854-.023l5.284 2.09c1.48.752 2.709 1.45 2.99 1.613z" fill="#dce6f2"/><path data-name="Path 122" d="M135.022 36.687a14.158 14.158 0 01-1.151 5.728 7.548 7.548 0 01-7.868 4.405 2.448 2.448 0 01-1.15-.462 3.006 3.006 0 01-.743-1.077c-.647-1.39-.978-2.992-1.883-4.182s-2.743-1.708-3.616-.49c-.476.66-.555 1.678-1.19 2.136-.762.55-1.768-.1-2.361-.884-1.751-2.3-1.151-6.821-4.49-7.454-.541-.1-1.169-.09-1.531-.557a2.143 2.143 0 01-.327-1.02c-.06-.426-.111-.861-.141-1.3a12.88 12.88 0 00.141 2.89 2.143 2.143 0 00.327 1.02c.363.467.99.453 1.531.557 3.339.633 2.739 5.15 4.49 7.454.591.776 1.592 1.425 2.361.884.635-.458.707-1.477 1.19-2.136.874-1.218 2.711-.7 3.616.49s1.238 2.792 1.883 4.182a3.007 3.007 0 00.743 1.077 2.448 2.448 0 001.15.462 7.548 7.548 0 007.868-4.405 16 16 0 001.155-7.107c-.004-.077-.004-.147-.004-.211z" opacity=".1"/><g data-name="Group 5" opacity=".1"><path data-name="Path 123" d="M146.586 45.175a6.138 6.138 0 01.092 3.128 42.212 42.212 0 01-.953 4.476 5.964 5.964 0 00-.327 2.7 8.292 8.292 0 00.842 1.945 13.979 13.979 0 011.013 5.562 21.045 21.045 0 00.628 5.64 6.963 6.963 0 002.03 3.2 7.46 7.46 0 01-1.146-2.249 20.976 20.976 0 01-.628-5.64 13.934 13.934 0 00-1.013-5.56 8.569 8.569 0 01-.842-1.945 6.046 6.046 0 01.327-2.7 42.187 42.187 0 00.953-4.488 6.146 6.146 0 00-.092-3.13 5.765 5.765 0 00-1.516-2.021 4.132 4.132 0 01.632 1.082z"/><path data-name="Path 124" d="M152.389 73.692a4.619 4.619 0 01-1.316-.686 4.276 4.276 0 01-1.609.467 1.7 1.7 0 00.707 1.57 2.451 2.451 0 00.3.207 1.414 1.414 0 01-.118-.833 4.3 4.3 0 002.035-.725z"/><path data-name="Path 125" d="M134.012 32.6c-.674-.322-1.546-.329-2.207-.6a1.807 1.807 0 00.15.354c.557.934 1.959.732 2.941 1.2a2.413 2.413 0 01.354.218 3.4 3.4 0 00-1.238-1.172z"/><path data-name="Path 126" d="M151.226 76.121a3.072 3.072 0 01-2.138.1 6.072 6.072 0 01-1.982-1.3l-3.39-2.916a24.13 24.13 0 01-.476-.419c.035.048.071.1.11.145a9.462 9.462 0 001.25 1.217l3.39 2.918a6.1 6.1 0 001.983 1.3 3.077 3.077 0 002.709-.419 5.728 5.728 0 01-1.456-.626z"/><path data-name="Path 127" d="M140.541 33.857a8.492 8.492 0 011.981 4.14 16.541 16.541 0 00.074 1.9 4.728 4.728 0 001.618 2.456 3.491 3.491 0 01-.734-1.512 16.573 16.573 0 01-.074-1.9 8.433 8.433 0 00-1.981-4.138 18.912 18.912 0 00-2.173-2.623c.455.537.88 1.11 1.289 1.677z"/></g><path data-name="Path 128" d="M132.783 30.191s-1.061 1.768 1.945 3.242l.177-.472z" opacity=".1"/><path data-name="Path 129" d="M132.606 30.191s-1.061 1.768 1.945 3.242l.177-.472z" fill="#ff6584"/><path data-name="Path 130" d="M174.466 130.284s.973 1.272-.448 3.183-2.591 3.537-2.122 4.734c0 0 2.143-3.563 3.891-3.613s.599-2.164-1.321-4.304z" fill="#6c63ff"/><path data-name="Path 131" d="M174.467 130.284a1.6 1.6 0 01.2.4c1.7 2 2.607 3.866.971 3.912-1.523.044-3.349 2.768-3.788 3.456.014.053.032.1.051.157 0 0 2.143-3.563 3.891-3.613s.594-2.172-1.325-4.312z" opacity=".1"/><path data-name="Path 132" d="M176.275 131.904c0 .447-.051.81-.113.81s-.111-.354-.111-.81.062-.237.124-.237.1-.211.1.237z" fill="#ffd037"/><path data-name="Path 133" d="M176.893 132.438c-.392.214-.736.343-.764.288s.264-.272.656-.486.239-.058.269 0 .234-.016-.161.198z" fill="#ffd037"/><path data-name="Path 134" d="M169.33 130.284s-.973 1.272.448 3.183 2.591 3.537 2.122 4.734c0 0-2.142-3.563-3.891-3.613s-.591-2.164 1.321-4.304z" fill="#6c63ff"/><path data-name="Path 135" d="M169.33 130.284a1.6 1.6 0 00-.2.4c-1.7 2-2.607 3.866-.971 3.912 1.523.044 3.349 2.768 3.788 3.456a1.37 1.37 0 01-.053.157s-2.142-3.563-3.891-3.613-.585-2.172 1.327-4.312z" opacity=".1"/><path data-name="Path 136" d="M167.53 131.904c0 .447.051.81.113.81s.111-.354.111-.81-.062-.237-.124-.237-.1-.211-.1.237z" fill="#ffd037"/><path data-name="Path 137" d="M166.911 132.438c.393.214.734.343.764.288s-.263-.272-.656-.486-.239-.058-.269 0-.232-.016.161.198z" fill="#ffd037"/><path data-name="Path 138" d="M167.839 138.04s2.716-.085 3.537-.667 4.179-1.28 4.382-.354 4.082 4.649 1.015 4.674-7.125-.477-7.942-.974-.992-2.679-.992-2.679z" fill="#a8a8a8"/><path data-name="Path 139" d="M176.826 141.379c-3.066.025-7.125-.477-7.942-.974-.622-.38-.87-1.74-.953-2.366h-.092s.177 2.191.99 2.69 4.876 1 7.942.974c.884 0 1.19-.322 1.174-.789-.127.288-.461.465-1.119.465z" opacity=".2"/><path data-name="Path 140" d="M46.439 134.922a2.066 2.066 0 00.679-1.022.914.914 0 00-.474-1.043c-.435-.166-.9.136-1.252.44a1.672 1.672 0 01-1.218.587 1.852 1.852 0 00.573-1.735.729.729 0 00-.159-.354c-.241-.258-.679-.147-.969.057a3.6 3.6 0 00-1.18 3.019 5.568 5.568 0 01-.018-1.238 1.273 1.273 0 00-.467-1.1 1.415 1.415 0 00-.707-.177 1.473 1.473 0 00-1.157.329 1.137 1.137 0 00.046 1.415 4.588 4.588 0 001.2.959 2.652 2.652 0 01.856.815.854.854 0 01.064.147h2.58a7.21 7.21 0 001.603-1.099z" fill="#6c63ff"/><path data-name="Path 141" d="M25.849 137.711s-2.476-8.435.465-14.646a13.336 13.336 0 001.079-8.359 22.505 22.505 0 00-1.185-3.924" fill="none" stroke="#535461" stroke-miterlimit="10" stroke-width="2"/><path data-name="Path 142" d="M28.045 106.857c0 1.033-1.873 4.032-1.873 4.032s-1.873-3.006-1.873-4.032a1.873 1.873 0 113.746 0z" fill="#6c63ff"/><path data-name="Path 143" d="M31.139 112.584c-.562.868-3.763 2.368-3.763 2.368s.057-3.537.619-4.4a1.873 1.873 0 113.145 2.034z" fill="#6c63ff"/><path data-name="Path 144" d="M31.003 122.372c-.923.465-4.444.143-4.444.143s1.836-3.02 2.759-3.487a1.873 1.873 0 111.685 3.344z" fill="#6c63ff"/><path data-name="Path 145" d="M29.234 129.753c-.831.615-4.356.884-4.356.884s1.3-3.288 2.122-3.9a1.873 1.873 0 112.226 3.006z" fill="#6c63ff"/><path data-name="Path 146" d="M23.445 115.151c.741.722 4.2 1.468 4.2 1.468s-.847-3.433-1.592-4.154a1.873 1.873 0 10-2.608 2.686z" fill="#6c63ff"/><path data-name="Path 147" d="M21.488 123.812c.923.465 4.444.145 4.444.145s-1.834-3.022-2.759-3.487a1.872 1.872 0 10-1.685 3.342z" fill="#6c63ff"/><path data-name="Path 148" d="M20.735 132.491c.831.614 4.356.884 4.356.884s-1.3-3.289-2.122-3.9a1.873 1.873 0 00-2.226 3.006z" fill="#6c63ff"/><path data-name="Path 149" d="M28.045 106.857c0 1.033-1.873 4.032-1.873 4.032s-1.873-3.006-1.873-4.032a1.873 1.873 0 113.746 0z" fill="#6c63ff"/><path data-name="Path 150" d="M31.139 112.584c-.562.868-3.763 2.368-3.763 2.368s.057-3.537.619-4.4a1.873 1.873 0 113.145 2.034z" fill="#6c63ff"/><path data-name="Path 151" d="M31.003 122.372c-.923.465-4.444.143-4.444.143s1.836-3.02 2.759-3.487a1.873 1.873 0 111.685 3.344z" fill="#6c63ff"/><path data-name="Path 152" d="M29.234 129.753c-.831.615-4.356.884-4.356.884s1.3-3.288 2.122-3.9a1.873 1.873 0 112.226 3.006z" fill="#6c63ff"/><path data-name="Path 153" d="M23.445 115.151c.741.722 4.2 1.468 4.2 1.468s-.847-3.433-1.592-4.154a1.873 1.873 0 10-2.608 2.686z" fill="#6c63ff"/><path data-name="Path 154" d="M21.488 123.812c.923.465 4.444.145 4.444.145s-1.834-3.022-2.759-3.487a1.872 1.872 0 10-1.685 3.342z" fill="#6c63ff"/><path data-name="Path 155" d="M20.735 132.491c.831.614 4.356.884 4.356.884s-1.3-3.289-2.122-3.9a1.873 1.873 0 00-2.226 3.006z" fill="#6c63ff"/><path data-name="Path 156" d="M19.976 137.18s3.026-.6 3.832-1.4 4.439-2.2 4.842-1.2 5.447 4.407 2.018 5.008-8.069.8-9.079.4-1.613-2.808-1.613-2.808z" fill="#a8a8a8"/><path data-name="Path 157" d="M30.668 139.21c-3.431.6-8.069.8-9.079.4-.768-.306-1.3-1.768-1.512-2.453l-.1.021s.6 2.4 1.613 2.8 5.648.2 9.079-.4c.989-.177 1.271-.582 1.165-1.1-.089.341-.43.602-1.166.732z" opacity=".2"/></g></svg>